<svg width="16" height="16" viewBox="0 0 16 16" fill="none" xmlns="http://www.w3.org/2000/svg">
<path d="M2.66699 14.6667V5.43341H4.83366V3.83341C4.83366 2.95564 5.14199 2.20841 5.75866 1.59175C6.37533 0.975081 7.12255 0.666748 8.00033 0.666748C8.8781 0.666748 9.62533 0.975081 10.242 1.59175C10.8587 2.20841 11.167 2.95564 11.167 3.83341V5.43341H13.3337V14.6667H2.66699ZM5.83366 5.43341H10.167V3.83341C10.167 3.23341 9.95588 2.7223 9.53366 2.30008C9.11144 1.87786 8.60033 1.66675 8.00033 1.66675C7.40033 1.66675 6.88921 1.87786 6.46699 2.30008C6.04477 2.7223 5.83366 3.23341 5.83366 3.83341V5.43341ZM8.00033 11.3334C8.35588 11.3334 8.65866 11.2112 8.90866 10.9667C9.15866 10.7223 9.28366 10.4279 9.28366 10.0834C9.28366 9.75008 9.15866 9.4473 8.90866 9.17508C8.65866 8.90286 8.35588 8.76675 8.00033 8.76675C7.64477 8.76675 7.34199 8.90286 7.09199 9.17508C6.84199 9.4473 6.71699 9.75008 6.71699 10.0834C6.71699 10.4279 6.84199 10.7223 7.09199 10.9667C7.34199 11.2112 7.64477 11.3334 8.00033 11.3334Z" fill="#EDECF4"/>
</svg>
