<svg width="16" height="16" viewBox="0 0 16 16" fill="none" xmlns="http://www.w3.org/2000/svg">
<path d="M8.00033 7.9834C7.26699 7.9834 6.66699 7.75006 6.20033 7.2834C5.73366 6.81673 5.50033 6.21673 5.50033 5.4834C5.50033 4.75007 5.73366 4.15007 6.20033 3.6834C6.66699 3.21673 7.26699 2.9834 8.00033 2.9834C8.73366 2.9834 9.33366 3.21673 9.80032 3.6834C10.267 4.15007 10.5003 4.75007 10.5003 5.4834C10.5003 6.21673 10.267 6.81673 9.80032 7.2834C9.33366 7.75006 8.73366 7.9834 8.00033 7.9834ZM2.66699 13.3334V11.7667C2.66699 11.3445 2.77255 10.9834 2.98366 10.6834C3.19477 10.3834 3.46699 10.1556 3.80033 10.0001C4.54477 9.66673 5.25866 9.41673 5.94199 9.25006C6.62533 9.0834 7.31144 9.00006 8.00033 9.00006C8.68921 9.00006 9.37255 9.08618 10.0503 9.2584C10.7281 9.43062 11.4392 9.67784 12.1837 10.0001C12.5281 10.1556 12.8059 10.3834 13.017 10.6834C13.2281 10.9834 13.3337 11.3445 13.3337 11.7667V13.3334H2.66699Z" fill="#EDECF4"/>
</svg>
