<svg width="16" height="16" viewBox="0 0 16 16" fill="none" xmlns="http://www.w3.org/2000/svg">
<path d="M12.95 7.88334C12.8944 6.5389 12.3972 5.39723 11.4583 4.45834C10.5194 3.51945 9.37778 3.02223 8.03333 2.96667V1.96667C8.84444 1.9889 9.60278 2.15834 10.3083 2.47501C11.0139 2.79167 11.6333 3.21667 12.1667 3.75001C12.7 4.28334 13.125 4.90279 13.4417 5.60834C13.7583 6.3139 13.9278 7.07223 13.95 7.88334H12.95ZM10.1167 7.88334C10.0611 7.32779 9.83889 6.85834 9.45 6.47501C9.06111 6.09167 8.58889 5.87223 8.03333 5.81668V4.81667C8.86667 4.87223 9.575 5.1889 10.1583 5.76667C10.7417 6.34445 11.0611 7.05001 11.1167 7.88334H10.1167ZM13.25 14C11.8944 14 10.5472 13.6695 9.20833 13.0083C7.86944 12.3472 6.66667 11.4833 5.6 10.4167C4.53333 9.35001 3.66667 8.14445 3 6.80001C2.33333 5.45556 2 4.10556 2 2.75001C2 2.62779 2.00556 2.50001 2.01667 2.36667C2.02778 2.23334 2.04444 2.11112 2.06667 2.00001H5.6L6.26667 5.15001L4.31667 7.11668C4.93889 8.15001 5.63611 9.05001 6.40833 9.81668C7.18056 10.5833 8.05556 11.2333 9.03333 11.7667L10.9833 9.75001L14 10.4167V13.95C13.8889 13.9611 13.7667 13.9722 13.6333 13.9833C13.5 13.9945 13.3722 14 13.25 14Z" fill="#EDECF4"/>
</svg>
