<svg width="16" height="17" viewBox="0 0 16 17" fill="none" xmlns="http://www.w3.org/2000/svg">
<path d="M7.99967 10.9333L8.69967 10.2333L7.46634 8.99998H10.4997V7.99998H7.46634L8.69967 6.76665L7.99967 6.06665L5.56634 8.49998L7.99967 10.9333ZM7.99967 15.1666C7.08856 15.1666 6.22745 14.9916 5.41634 14.6416C4.60523 14.2916 3.8969 13.8139 3.29134 13.2083C2.68579 12.6028 2.20801 11.8944 1.85801 11.0833C1.50801 10.2722 1.33301 9.41109 1.33301 8.49998C1.33301 7.57776 1.50801 6.71109 1.85801 5.89998C2.20801 5.08887 2.68579 4.38331 3.29134 3.78331C3.8969 3.18331 4.60523 2.70831 5.41634 2.35831C6.22745 2.00831 7.08856 1.83331 7.99967 1.83331C8.9219 1.83331 9.78856 2.00831 10.5997 2.35831C11.4108 2.70831 12.1163 3.18331 12.7163 3.78331C13.3163 4.38331 13.7913 5.08887 14.1413 5.89998C14.4913 6.71109 14.6663 7.57776 14.6663 8.49998C14.6663 9.41109 14.4913 10.2722 14.1413 11.0833C13.7913 11.8944 13.3163 12.6028 12.7163 13.2083C12.1163 13.8139 11.4108 14.2916 10.5997 14.6416C9.78856 14.9916 8.9219 15.1666 7.99967 15.1666Z" fill="#EDECF4"/>
</svg>
