<svg width="16" height="17" viewBox="0 0 16 17" fill="none" xmlns="http://www.w3.org/2000/svg">
<path d="M2 14.5V2.5H11.3833L14 5.11667V14.5H2ZM8 12.4167C8.47778 12.4167 8.88611 12.2472 9.225 11.9083C9.56389 11.5694 9.73333 11.1611 9.73333 10.6833C9.73333 10.2056 9.56389 9.79722 9.225 9.45833C8.88611 9.11944 8.47778 8.95 8 8.95C7.52222 8.95 7.11389 9.11944 6.775 9.45833C6.43611 9.79722 6.26667 10.2056 6.26667 10.6833C6.26667 11.1611 6.43611 11.5694 6.775 11.9083C7.11389 12.2472 7.52222 12.4167 8 12.4167ZM3.88333 6.76667H9.85V4.38333H3.88333V6.76667Z" fill="#EDECF4"/>
</svg>
