<svg width="18" height="19" viewBox="0 0 18 19" fill="none" xmlns="http://www.w3.org/2000/svg">
<g clip-path="url(#clip0_560_33339)">
<path fill-rule="evenodd" clip-rule="evenodd" d="M9.03745 0.510437C7.21311 0.510437 3.84943 0.982017 2.13485 1.97793C-0.120846 9.96988 2.94751 15.4057 9.03745 18.4897C15.1274 15.4057 18.1951 9.94294 15.9394 1.97793C14.2248 0.982017 10.8618 0.510437 9.03745 0.510437Z" fill="#9D864A" stroke="#9D864A"/>
<path fill-rule="evenodd" clip-rule="evenodd" d="M9.03812 1.02448C7.24507 1.02448 5.22775 1.2534 2.58466 2.33165C0.616944 9.30789 2.89973 14.8997 9.03812 17.9477C15.1765 14.8997 17.4587 9.30789 15.4909 2.33165C12.8479 1.2534 10.8312 1.02448 9.03812 1.02448Z" fill="#012F73" stroke="#012F73"/>
<path fill-rule="evenodd" clip-rule="evenodd" d="M9.02794 1.01834C7.24398 1.01834 5.32879 1.28177 3.60126 1.93674C1.80882 9.07982 3.13026 14.2954 9.03832 17.9416L9.02794 1.01834ZM9.03832 17.9416C14.9464 14.2954 16.2672 9.07982 14.4747 1.93674C12.7472 1.28177 10.8327 1.01834 9.04871 1.01834L9.03832 17.9416Z" fill="white" stroke="white"/>
<path fill-rule="evenodd" clip-rule="evenodd" d="M9.03866 1.01611C7.24561 1.01611 5.42953 1.28694 3.95275 1.80215C2.09658 9.28766 3.58735 14.3441 9.04152 17.7988L9.03866 1.01611Z" fill="#EF0007" stroke="#EF0007"/>
<path fill-rule="evenodd" clip-rule="evenodd" d="M9.04245 1.01611C10.8355 1.01611 12.653 1.28694 14.1298 1.80215C15.986 9.28766 14.4952 14.3441 9.04102 17.7988L9.04245 1.01611Z" fill="#DB0007" stroke="#DB0007"/>
<path fill-rule="evenodd" clip-rule="evenodd" d="M6.72205 12.3145C5.93046 12.856 5.3006 13.0517 4.56889 13.2451L4.12695 12.5598C4.79897 12.2201 5.49501 11.7467 6.19591 11.0597C6.25597 11.7263 6.56495 12.1978 6.72205 12.3145Z" fill="white"/>
<path fill-rule="evenodd" clip-rule="evenodd" d="M6.61376 12.2849C5.86363 12.8008 4.81681 13.1588 3.61857 13.3354L3.375 12.9641C4.39994 12.58 5.39058 12.0065 6.15901 11.2027C6.27529 11.7177 6.4526 12.0597 6.61376 12.2849Z" fill="#9D864A"/>
<path d="M4.61226 9.13673C4.61226 9.2749 4.55738 9.40741 4.45967 9.50512C4.36197 9.60282 4.22946 9.65771 4.09129 9.65771C3.95312 9.65771 3.8206 9.60282 3.7229 9.50512C3.6252 9.40741 3.57031 9.2749 3.57031 9.13673C3.57031 8.99856 3.6252 8.86605 3.7229 8.76834C3.8206 8.67064 3.95312 8.61575 4.09129 8.61575C4.22946 8.61575 4.36197 8.67064 4.45967 8.76834C4.55738 8.86605 4.61226 8.99856 4.61226 9.13673Z" fill="white"/>
<path fill-rule="evenodd" clip-rule="evenodd" d="M4.55859 8.11047V10.0742H6.10609C6.20746 9.41706 6.58214 8.71779 7.42911 8.11047H4.55859Z" fill="white"/>
<path d="M4.62032 10.0741C4.53758 10.0757 4.45546 10.0516 4.3787 10.0031C4.30195 9.95469 4.23207 9.88287 4.17312 9.79184C4.11417 9.7008 4.06731 9.59235 4.03525 9.47275C4.00319 9.35315 3.98656 9.22477 3.98633 9.09504C3.9861 8.96531 4.00227 8.83679 4.03391 8.71691C4.06555 8.59704 4.11202 8.48818 4.17065 8.39663C4.22928 8.30508 4.2989 8.23266 4.37548 8.18355C4.45207 8.13444 4.5341 8.10961 4.61685 8.1105" fill="white"/>
<path d="M4.39398 9.13672C4.39398 9.24324 4.35604 9.34539 4.28851 9.42071C4.22099 9.49602 4.1294 9.53833 4.0339 9.53833C3.93841 9.53833 3.84682 9.49602 3.77929 9.42071C3.71176 9.34539 3.67383 9.24324 3.67383 9.13672C3.67383 9.03021 3.71176 8.92805 3.77929 8.85274C3.84682 8.77742 3.93841 8.73511 4.0339 8.73511C4.1294 8.73511 4.22099 8.77742 4.28851 8.85274C4.35604 8.92805 4.39398 9.03021 4.39398 9.13672Z" fill="#9D864A"/>
<path fill-rule="evenodd" clip-rule="evenodd" d="M4.59961 8.21417V9.97958H6.13588C6.25729 9.39298 6.55561 8.76855 7.29964 8.21417H4.59961Z" fill="#9D864A"/>
<path d="M4.65689 9.97957C4.57906 9.98102 4.50182 9.95934 4.42962 9.91578C4.35742 9.87223 4.29169 9.80767 4.23624 9.72582C4.18079 9.64398 4.13672 9.54648 4.10656 9.43895C4.0764 9.33143 4.06077 9.21602 4.06055 9.09939C4.06033 8.98275 4.07554 8.86721 4.1053 8.75944C4.13506 8.65167 4.17877 8.5538 4.23392 8.4715C4.28907 8.38919 4.35455 8.32408 4.42659 8.27993C4.49863 8.23578 4.57579 8.21345 4.65362 8.21425" fill="#9D864A"/>
<path d="M11.9783 10.5349C11.9783 10.9245 11.9016 11.3103 11.7525 11.6702C11.6034 12.0301 11.3849 12.3572 11.1094 12.6327C10.8339 12.9081 10.5068 13.1267 10.1469 13.2758C9.78697 13.4248 9.4012 13.5016 9.01161 13.5016C8.62202 13.5016 8.23624 13.4248 7.87631 13.2758C7.51637 13.1267 7.18933 12.9081 6.91384 12.6327C6.63836 12.3572 6.41984 12.0301 6.27075 11.6702C6.12166 11.3103 6.04492 10.9245 6.04492 10.5349C6.04492 10.1453 6.12166 9.75953 6.27075 9.39959C6.41984 9.03966 6.63836 8.71261 6.91384 8.43713C7.18933 8.16165 7.51637 7.94312 7.87631 7.79403C8.23624 7.64494 8.62202 7.56821 9.01161 7.56821C9.4012 7.56821 9.78697 7.64494 10.1469 7.79403C10.5068 7.94312 10.8339 8.16165 11.1094 8.43713C11.3849 8.71261 11.6034 9.03966 11.7525 9.39959C11.9016 9.75953 11.9783 10.1453 11.9783 10.5349Z" fill="white"/>
<path d="M11.8235 10.5349C11.8235 10.9041 11.7507 11.2696 11.6095 11.6107C11.4682 11.9517 11.2611 12.2616 11.0001 12.5227C10.7391 12.7837 10.4292 12.9908 10.0881 13.1321C9.74703 13.2733 9.38148 13.346 9.01232 13.346C8.64315 13.346 8.2776 13.2733 7.93654 13.1321C7.59547 12.9908 7.28558 12.7837 7.02454 12.5227C6.7635 12.2616 6.55643 11.9517 6.41516 11.6107C6.27388 11.2696 6.20117 10.9041 6.20117 10.5349C6.20117 10.1657 6.27388 9.80018 6.41516 9.45912C6.55643 9.11806 6.7635 8.80816 7.02454 8.54712C7.28558 8.28608 7.59547 8.07901 7.93654 7.93774C8.2776 7.79647 8.64315 7.72375 9.01232 7.72375C9.38148 7.72375 9.74703 7.79647 10.0881 7.93774C10.4292 8.07901 10.7391 8.28608 11.0001 8.54712C11.2611 8.80816 11.4682 9.11806 11.6095 9.45912C11.7507 9.80018 11.8235 10.1657 11.8235 10.5349Z" fill="#9D864A"/>
<path d="M11.357 10.5349C11.357 10.8428 11.2964 11.1477 11.1785 11.4321C11.0607 11.7166 10.888 11.975 10.6703 12.1927C10.4526 12.4104 10.1942 12.5831 9.9097 12.7009C9.62525 12.8188 9.32038 12.8794 9.01249 12.8794C8.7046 12.8794 8.39973 12.8188 8.11528 12.7009C7.83083 12.5831 7.57237 12.4104 7.35466 12.1927C7.13695 11.975 6.96426 11.7166 6.84643 11.4321C6.72861 11.1477 6.66797 10.8428 6.66797 10.5349C6.66797 10.227 6.72861 9.92213 6.84643 9.63768C6.96426 9.35323 7.13695 9.09477 7.35466 8.87706C7.57237 8.65935 7.83083 8.48666 8.11528 8.36883C8.39973 8.25101 8.7046 8.19037 9.01249 8.19037C9.32038 8.19037 9.62525 8.25101 9.9097 8.36883C10.1942 8.48666 10.4526 8.65935 10.6703 8.87706C10.888 9.09477 11.0607 9.35323 11.1785 9.63768C11.2964 9.92213 11.357 10.227 11.357 10.5349Z" fill="white"/>
<path d="M11.2002 10.5349C11.2002 10.8224 11.1436 11.107 11.0336 11.3726C10.9236 11.6382 10.7624 11.8795 10.5591 12.0827C10.3558 12.286 10.1145 12.4472 9.84893 12.5573C9.58335 12.6673 9.29871 12.7239 9.01125 12.7239C8.72379 12.7239 8.43914 12.6673 8.17356 12.5573C7.90798 12.4472 7.66667 12.286 7.4634 12.0827C7.26014 11.8795 7.0989 11.6382 6.98889 11.3726C6.87889 11.107 6.82227 10.8224 6.82227 10.5349C6.82227 10.2474 6.87889 9.96279 6.98889 9.69721C7.0989 9.43163 7.26014 9.19032 7.4634 8.98705C7.66667 8.78379 7.90798 8.62255 8.17356 8.51254C8.43914 8.40254 8.72379 8.34592 9.01125 8.34592C9.29871 8.34592 9.58335 8.40254 9.84893 8.51254C10.1145 8.62255 10.3558 8.78379 10.5591 8.98705C10.7624 9.19032 10.9236 9.43163 11.0336 9.69721C11.1436 9.96279 11.2002 10.2474 11.2002 10.5349Z" fill="#9D864A"/>
<path d="M9.92436 10.5349C9.92439 10.6548 9.90078 10.7736 9.8549 10.8845C9.80901 10.9953 9.74173 11.096 9.65692 11.1809C9.5721 11.2657 9.47141 11.333 9.36058 11.3789C9.24975 11.4248 9.13097 11.4484 9.01101 11.4484C8.89105 11.4484 8.77227 11.4248 8.66144 11.3789C8.55061 11.333 8.44992 11.2657 8.3651 11.1809C8.28029 11.096 8.21301 10.9953 8.16713 10.8845C8.12124 10.7736 8.09763 10.6548 8.09766 10.5349C8.09763 10.4149 8.12124 10.2961 8.16713 10.1853C8.21301 10.0745 8.28029 9.97375 8.3651 9.88892C8.44992 9.80409 8.55061 9.73679 8.66144 9.69088C8.77227 9.64497 8.89105 9.62134 9.01101 9.62134C9.13097 9.62134 9.24975 9.64497 9.36058 9.69088C9.47141 9.73679 9.5721 9.80409 9.65692 9.88892C9.74173 9.97375 9.80901 10.0745 9.8549 10.1853C9.90078 10.2961 9.92439 10.4149 9.92436 10.5349Z" fill="white"/>
<path d="M9.81522 10.5349C9.81524 10.6406 9.79443 10.7453 9.75398 10.843C9.71354 10.9407 9.65424 11.0295 9.57948 11.1043C9.50472 11.179 9.41596 11.2384 9.31827 11.2788C9.22059 11.3193 9.11589 11.3401 9.01015 11.3401C8.90441 11.3401 8.79971 11.3193 8.70202 11.2788C8.60433 11.2384 8.51558 11.179 8.44082 11.1043C8.36606 11.0295 8.30676 10.9407 8.26631 10.843C8.22586 10.7453 8.20506 10.6406 8.20508 10.5349C8.20506 10.4291 8.22586 10.3244 8.26631 10.2267C8.30676 10.1291 8.36606 10.0403 8.44082 9.9655C8.51558 9.89073 8.60433 9.83141 8.70202 9.79094C8.79971 9.75047 8.90441 9.72964 9.01015 9.72964C9.11589 9.72964 9.22059 9.75047 9.31827 9.79094C9.41596 9.83141 9.50472 9.89073 9.57948 9.9655C9.65424 10.0403 9.71354 10.1291 9.75398 10.2267C9.79443 10.3244 9.81524 10.4291 9.81522 10.5349Z" fill="#9D864A"/>
<path d="M9.42446 10.5349C9.42447 10.5892 9.41379 10.643 9.39302 10.6931C9.37225 10.7433 9.3418 10.7889 9.30341 10.8273C9.26502 10.8657 9.21944 10.8961 9.16928 10.9169C9.11912 10.9377 9.06535 10.9484 9.01106 10.9484C8.95676 10.9484 8.903 10.9377 8.85284 10.9169C8.80267 10.8961 8.7571 10.8657 8.71871 10.8273C8.68032 10.7889 8.64987 10.7433 8.6291 10.6931C8.60833 10.643 8.59764 10.5892 8.59766 10.5349C8.59764 10.4806 8.60833 10.4268 8.6291 10.3767C8.64987 10.3265 8.68032 10.2809 8.71871 10.2425C8.7571 10.2041 8.80267 10.1737 8.85284 10.1529C8.903 10.1321 8.95676 10.1214 9.01106 10.1214C9.06535 10.1214 9.11912 10.1321 9.16928 10.1529C9.21944 10.1737 9.26502 10.2041 9.30341 10.2425C9.3418 10.2809 9.37225 10.3265 9.39302 10.3767C9.41379 10.4268 9.42447 10.4806 9.42446 10.5349Z" fill="white"/>
<path d="M9.31037 10.5349C9.31038 10.5743 9.30263 10.6132 9.28757 10.6496C9.27251 10.686 9.25044 10.719 9.22261 10.7469C9.19478 10.7747 9.16173 10.7968 9.12536 10.8118C9.089 10.8269 9.05002 10.8347 9.01065 10.8347C8.97129 10.8347 8.93231 10.8269 8.89594 10.8118C8.85957 10.7968 8.82653 10.7747 8.7987 10.7469C8.77087 10.719 8.74879 10.686 8.73373 10.6496C8.71868 10.6132 8.71093 10.5743 8.71094 10.5349C8.71093 10.4955 8.71868 10.4565 8.73373 10.4202C8.74879 10.3838 8.77087 10.3508 8.7987 10.3229C8.82653 10.2951 8.85957 10.273 8.89594 10.2579C8.93231 10.2429 8.97129 10.2351 9.01065 10.2351C9.05002 10.2351 9.089 10.2429 9.12536 10.2579C9.16173 10.273 9.19478 10.2951 9.22261 10.3229C9.25044 10.3508 9.27251 10.3838 9.28757 10.4202C9.30263 10.4565 9.31038 10.4955 9.31037 10.5349Z" fill="#9D864A"/>
<path d="M9.32035 8.29514H8.69727V9.749H9.32035V8.29514Z" fill="white"/>
<path d="M9.22337 8.08743H8.79297V9.93481H9.22337V8.08743Z" fill="#9D864A"/>
<path d="M11.0894 9.63926L10.75 9.1167L9.53069 9.90853L9.87004 10.4311L11.0894 9.63926Z" fill="white"/>
<path d="M11.211 9.44534L10.9766 9.08438L9.42722 10.0905L9.66163 10.4515L11.211 9.44534Z" fill="#9D864A"/>
<path d="M6.91064 9.63926L7.25 9.1167L8.46931 9.90853L8.12996 10.4311L6.91064 9.63926Z" fill="white"/>
<path d="M6.78903 9.44534L7.02344 9.08438L8.57278 10.0905L8.33837 10.4515L6.78903 9.44534Z" fill="#9D864A"/>
<path d="M11.0874 11.4372L10.748 11.9598L9.52873 11.1679L9.86809 10.6454L11.0874 11.4372Z" fill="white"/>
<path d="M11.209 11.6311L10.9746 11.9921L9.42527 10.9859L9.65968 10.625L11.209 11.6311Z" fill="#9D864A"/>
<path d="M6.90869 11.4372L7.24805 11.9598L8.46736 11.1679L8.128 10.6454L6.90869 11.4372Z" fill="white"/>
<path d="M6.78707 11.6311L7.02148 11.9921L8.57082 10.9859L8.33641 10.625L6.78707 11.6311Z" fill="#9D864A"/>
<path d="M9.32035 11.369H8.69727V12.8229H9.32035V11.369Z" fill="white"/>
<path d="M9.22337 11.1613H8.79297V13.0087H9.22337V11.1613Z" fill="#9D864A"/>
<path fill-rule="evenodd" clip-rule="evenodd" d="M8.40364 11.2147C8.48842 11.284 8.57951 11.3491 8.69676 11.3968L8.69368 12.6941C8.10585 12.6186 7.66111 12.3289 7.32422 11.916L8.40466 11.2147" fill="#EF0007"/>
<path d="M8.40364 11.2147C8.48842 11.284 8.57951 11.3491 8.69676 11.3968L8.69368 12.6941C8.10585 12.6186 7.66111 12.3289 7.32422 11.916L8.40466 11.2147" stroke="#EF0007" stroke-width="0.4"/>
<path fill-rule="evenodd" clip-rule="evenodd" d="M9.61733 11.2188C9.53255 11.2881 9.44147 11.3532 9.32422 11.4009L9.32729 12.6983C9.91512 12.6228 10.3599 12.3331 10.6968 11.9202L9.61631 11.2188" fill="#DB0007"/>
<path d="M9.61733 11.2188C9.53255 11.2881 9.44147 11.3532 9.32422 11.4009L9.32729 12.6983C9.91512 12.6228 10.3599 12.3331 10.6968 11.9202L9.61631 11.2188" stroke="#DB0007" stroke-width="0.4"/>
<path fill-rule="evenodd" clip-rule="evenodd" d="M9.91338 10.6755L11.1996 10.5189C11.21 10.8409 11.1329 11.1254 11.0234 11.396L9.91016 10.6755" fill="#DB0007"/>
<path fill-rule="evenodd" clip-rule="evenodd" d="M9.91602 10.6701C9.92091 10.6486 9.91964 10.6317 9.92723 10.5717L11.1969 10.4069C11.2031 10.4661 11.1986 10.4871 11.1983 10.5152L9.91602 10.6701Z" fill="white" stroke="white" stroke-width="0.4"/>
<path fill-rule="evenodd" clip-rule="evenodd" d="M11.7949 9.59955H13.4624C13.409 9.79667 13.3588 9.99694 13.12 10.0864C12.7377 10.2295 11.9433 10.3684 11.9433 10.3684C11.9287 10.1504 11.8788 9.8567 11.7949 9.59955Z" fill="white"/>
<path fill-rule="evenodd" clip-rule="evenodd" d="M10.6348 8.08121L14.9883 8.08777L14.8348 9.67658L11.8616 9.83263C11.701 9.12177 11.1608 8.44219 10.6348 8.08121Z" fill="white"/>
<path fill-rule="evenodd" clip-rule="evenodd" d="M10.7891 8.19476L16.3479 8.2002L16.1347 9.49533L11.8226 9.70846C11.6519 9.06319 11.263 8.59457 10.7891 8.19476Z" fill="#9D864A"/>
<path fill-rule="evenodd" clip-rule="evenodd" d="M11.7949 9.59918H13.331C13.2808 9.7752 13.2438 9.93472 13.0195 10.0146C12.6603 10.1424 11.9377 10.2439 11.9377 10.2439C11.9071 10.0332 11.8639 9.81942 11.7949 9.59918Z" fill="#9D864A"/>
<path d="M10.1091 5.77309C10.1091 5.84365 10.0943 6.03755 10.0868 6.09053H10.9485C10.896 5.86129 10.8734 5.54379 10.866 5.2969C10.866 5.31454 10.851 4.80308 10.851 4.80308C10.851 4.7678 10.866 4.71494 10.8883 4.69724C10.9183 4.66203 10.9484 4.66203 10.9858 4.66203C11.0232 4.64445 11.0906 4.64445 11.0983 4.7855L11.1206 5.3146C11.1282 5.56142 11.1282 5.89662 11.0983 6.09059H11.9297C11.9223 6.0201 11.8997 5.84377 11.8923 5.79079C11.9972 6.02003 12.2219 6.14345 12.5216 6.14345C12.7014 6.14345 12.8364 6.07295 12.9411 6.00234C12.9411 6.02004 12.9861 6.09053 12.9861 6.09053H14.5294C14.462 5.86129 14.417 5.54379 14.3945 5.2969L14.1773 3.56854L13.3831 3.42743C13.4506 3.65673 13.4954 3.99181 13.5254 4.22112L13.6452 5.33218C13.6678 5.52621 13.6828 5.73781 13.6828 5.96712V5.9847L13.6528 5.91426C13.5929 5.77309 13.5629 5.59664 13.5405 5.33218L13.5105 4.9794C13.4655 4.41502 13.1584 4.1682 12.484 4.1682C12.3716 4.1682 12.0871 4.18584 11.9147 4.23876L11.9596 4.87357L12.1394 4.76768C12.2893 4.6796 12.4018 4.64433 12.5364 4.64433C12.6414 4.64433 12.7088 4.6796 12.7388 4.7501C12.6115 4.76768 12.4691 4.80295 12.3117 4.87357C12.072 4.9794 11.9222 5.13809 11.8548 5.31448C11.8548 5.31448 11.8548 5.31448 11.8548 5.29684L11.8323 4.71482C11.8172 4.34447 11.5775 4.09758 11.2104 4.09758C11.0457 4.09758 10.8958 4.1505 10.761 4.23876C10.7535 4.22112 10.7459 4.20348 10.7384 4.18584L10.7085 4.11528L10.0192 4.08001C10.0492 4.20354 10.0943 4.55619 10.1017 4.67973C10.0643 4.50334 9.96693 4.30925 9.78699 4.1682C9.64459 4.08001 9.46484 4.02709 9.27767 4.02709C9.02294 4.02709 8.76075 4.13292 8.5884 4.30919C8.40859 4.48558 8.31874 4.7324 8.31108 5.01468C8.24377 4.94419 8.15392 4.87357 8.04907 4.83829L7.73439 4.67966H7.71938C7.64448 4.64439 7.63689 4.62675 7.63689 4.60911C7.64448 4.57383 7.71938 4.53855 7.81683 4.53855C7.95151 4.53855 8.1388 4.60911 8.28873 4.69724L8.30361 4.13292C8.19122 4.08001 8.034 4.04473 7.80923 4.04473C7.68937 4.04473 7.46454 4.06243 7.26984 4.16826C7.21741 4.20354 7.17233 4.23882 7.1275 4.27415L7.13497 4.11534C6.95516 4.08007 6.76039 4.08007 6.52068 4.30931C6.51302 4.29167 6.4982 4.20354 6.48332 4.16826L5.74157 4.20354C5.79399 4.41508 5.80153 4.71494 5.7864 4.97946L5.77152 5.26169V5.2969C5.76404 5.43807 5.75645 5.5967 5.74157 5.73781C5.68161 5.54379 5.6143 5.27926 5.56175 5.06772L5.19458 3.40985L4.1458 3.56854C4.15327 3.58624 4.16828 3.63916 4.17575 3.69201C4.18322 3.76257 4.18322 3.90362 4.08584 4.20354C3.9135 4.67973 3.67384 5.4028 3.44159 5.91432C3.41164 5.98476 3.35156 6.09059 3.35156 6.09059H4.16828C4.18322 5.96718 4.23571 5.75551 4.28814 5.59676C4.40052 5.59676 4.69267 5.59676 4.82747 5.57919C4.85742 5.70266 4.88743 5.86135 4.89502 5.96724L4.90991 6.09065H6.54328C6.50567 5.82619 6.52074 5.47348 6.53562 5.27939C6.55069 5.05014 6.59558 4.89139 6.69302 4.8032C6.76787 4.71507 6.8503 4.69737 6.91026 4.69737C6.90279 5.01486 7.10509 5.15591 7.28484 5.24411L7.60694 5.40292C7.71938 5.47348 7.71938 5.49105 7.71938 5.52639C7.71191 5.57925 7.622 5.59682 7.53957 5.59682C7.36728 5.59682 7.13504 5.49105 6.88025 5.20883L6.86531 5.94966C7.0676 6.05544 7.3222 6.10835 7.54698 6.10835C7.92156 6.10835 8.31874 5.93202 8.42353 5.59682C8.61094 5.94966 8.97805 6.10835 9.33763 6.10835C9.65978 6.10817 9.89944 6.00227 10.1091 5.77309ZM4.4829 5.04996C4.52792 4.92649 4.56534 4.82071 4.63283 4.62675C4.67772 4.82071 4.70026 4.94419 4.72274 5.03238C4.63283 5.04996 4.58788 5.04996 4.4829 5.04996ZM9.06796 4.85593C9.06796 4.60911 9.15787 4.50328 9.24778 4.50328C9.27773 4.50328 9.3451 4.48558 9.37505 4.60911C9.39011 4.66197 9.39759 4.69718 9.39759 4.71488C9.39759 4.78544 9.36017 4.80301 9.31509 4.80301V4.82071C9.31509 4.82071 9.18782 4.85593 9.06796 4.90885C9.06796 4.89127 9.06796 4.87357 9.06796 4.85593ZM9.92198 5.36746C9.7647 5.50863 9.65231 5.59664 9.4649 5.59664C9.31509 5.57906 9.22518 5.49087 9.17275 5.36746C9.33009 5.31454 9.93698 5.0853 10.1091 5.01468C10.1091 5.15579 10.1167 5.31454 10.1167 5.31454C10.1167 5.42038 10.1167 5.52621 10.1167 5.61434L9.92198 5.36746ZM12.7163 5.61428C12.5741 5.61428 12.544 5.50857 12.5365 5.43801C12.544 5.36746 12.5665 5.26163 12.7913 5.19107C12.7988 5.2792 12.8064 5.34982 12.8064 5.34982V5.42031C12.8138 5.47329 12.8138 5.52621 12.8212 5.57906C12.7914 5.59664 12.7539 5.59664 12.7163 5.61428Z" fill="#9D864A"/>
<path d="M8.17595 4.22113C8.10093 4.20349 7.98854 4.16821 7.80884 4.16821C7.66645 4.16821 7.47922 4.20349 7.33688 4.27411C7.17201 4.37988 7.05215 4.52093 7.04468 4.67974C7.02961 4.92656 7.15706 5.03246 7.34435 5.12059C7.47181 5.19108 7.5916 5.2617 7.66645 5.29692C7.76395 5.34983 7.85386 5.40281 7.8462 5.52622C7.83885 5.64963 7.72641 5.73783 7.53918 5.73783C7.38171 5.73783 7.15712 5.63193 6.99966 5.49094L6.99219 5.8613C7.12711 5.93185 7.34435 5.96719 7.54659 5.96719C7.89122 5.96719 8.31835 5.80844 8.32582 5.42039C8.33323 5.12059 8.12352 5.01476 7.99619 4.94426C7.86874 4.89135 7.74147 4.82079 7.68151 4.80309C7.62155 4.76781 7.50169 4.73253 7.50923 4.59155C7.52411 4.46807 7.66645 4.4151 7.8165 4.4151C7.94377 4.4151 8.07104 4.45037 8.16854 4.50335" fill="white"/>
<path d="M5.09641 3.56848L4.30218 3.67438C4.31724 3.78021 4.28729 3.99181 4.20486 4.23876C4.03998 4.71482 3.77031 5.50857 3.56055 5.96712H4.05499C4.08494 5.80837 4.12242 5.66726 4.19732 5.47329L4.93148 5.45559C4.96143 5.59664 5.01392 5.82601 5.02139 5.96712H5.68811C5.60567 5.77309 5.50088 5.36746 5.43339 5.0853L5.09641 3.56848ZM4.30218 5.17337L4.66187 4.13293L4.87905 5.1558" fill="white"/>
<path d="M7.00107 4.22113L6.98618 4.57385C6.86632 4.55621 6.71652 4.59148 6.59654 4.7149C6.49174 4.82079 6.42425 4.97942 6.40931 5.2617C6.39424 5.49094 6.38683 5.75553 6.40184 5.96719H5.83984C5.87727 5.75553 5.89233 5.50871 5.8998 5.27934L5.91487 4.99724C5.92975 4.76787 5.92975 4.53869 5.89239 4.32702L6.38683 4.30939C6.40931 4.37994 6.42419 4.50347 6.41678 4.62695C6.63408 4.29162 6.84385 4.22113 7.00107 4.22113Z" fill="white"/>
<path d="M14.0642 3.67438L13.5547 3.58618C13.6072 3.81549 13.6222 3.97411 13.6522 4.20348L13.772 5.31454C13.7946 5.54379 13.8169 5.75546 13.8094 5.96712H14.3638C14.3115 5.75546 14.289 5.54379 14.2665 5.31454" fill="white"/>
<path d="M11.779 5.96713C11.7491 5.75547 11.7341 5.5438 11.7265 5.31456L11.7042 4.73247C11.6892 4.41504 11.5094 4.23877 11.2096 4.23877C11.0449 4.23877 10.8501 4.29156 10.6852 4.50329C10.6777 4.45031 10.6552 4.3092 10.6252 4.23877L10.1758 4.22113C10.2131 4.43274 10.2282 4.6444 10.2357 4.87358L10.2432 5.31449C10.2506 5.54374 10.2432 5.7554 10.2283 5.96707H10.7901C10.7602 5.7554 10.7451 5.54374 10.7377 5.31449L10.7228 4.82067C10.7153 4.64434 10.8501 4.52081 10.985 4.52081C11.1422 4.52081 11.2172 4.6267 11.2247 4.78533L11.2472 5.31443C11.2546 5.54368 11.2546 5.75534 11.2397 5.96701" fill="white"/>
<path d="M13.534 5.9671C13.4664 5.79072 13.4291 5.57905 13.414 5.3498L13.3841 4.99709C13.3541 4.57382 13.1743 4.29153 12.485 4.29153C12.3652 4.29153 12.1928 4.30917 12.0505 4.34445L12.073 4.66195C12.2154 4.57382 12.3577 4.50326 12.5375 4.50326C12.7249 4.50326 12.8821 4.59139 12.8972 4.85592C12.7173 4.87356 12.5525 4.90883 12.3652 4.99709C12.1554 5.08522 11.9382 5.26161 11.9606 5.54377C11.9831 5.86127 12.2228 6.00226 12.5226 6.00226C12.7548 6.00226 12.912 5.89649 13.0019 5.79071C13.017 5.86121 13.0395 5.91425 13.0619 5.9671H13.534ZM12.7173 5.7378C12.5526 5.7378 12.4176 5.6496 12.4102 5.45564C12.4102 5.26167 12.53 5.10292 12.912 5.05001L12.9346 5.34987C12.942 5.4557 12.942 5.52625 12.957 5.61433C12.9047 5.68488 12.8148 5.72016 12.7173 5.7378Z" fill="white"/>
<path d="M9.71145 4.27405C9.584 4.18585 9.43419 4.15051 9.27691 4.15051C8.90974 4.15051 8.42277 4.41497 8.43784 5.08525C8.44525 5.77304 8.9697 5.98471 9.33687 5.98471C9.65903 5.98471 9.85379 5.86124 10.0111 5.70255L9.89868 5.5438C9.81624 5.61429 9.6815 5.72019 9.46414 5.72019C9.2319 5.70255 9.08215 5.5438 8.99965 5.29692L10.0185 4.92656C9.98853 4.59148 9.86867 4.39746 9.71145 4.27405ZM9.35935 4.92656L8.95482 5.08531C8.94722 5.01476 8.93975 4.9442 8.93975 4.85601C8.93975 4.45037 9.16459 4.37988 9.23937 4.37988C9.35941 4.36224 9.4642 4.4328 9.50175 4.57391C9.54658 4.73247 9.53163 4.87358 9.35935 4.92656Z" fill="white"/>
</g>
<defs>
<clipPath id="clip0_560_33339">
<rect width="15.306" height="18" fill="white" transform="translate(1.38477 0.500061)"/>
</clipPath>
</defs>
</svg>
