<svg width="18" height="19" viewBox="0 0 18 19" fill="none" xmlns="http://www.w3.org/2000/svg">
<g clip-path="url(#clip0_560_33336)">
<path d="M9 0.500061C4.03707 0.500061 0 4.53768 0 9.4997C0 14.4624 4.03707 18.5001 9 18.5001C13.9629 18.5001 18 14.4624 18 9.4997C18 4.53768 13.9629 0.500061 9 0.500061Z" fill="url(#paint0_radial_560_33336)"/>
<path d="M8.9879 1.146C6.7554 1.146 4.65721 2.01539 3.0791 3.59343C1.50028 5.17148 0.630859 7.2703 0.630859 9.50199C0.630859 11.7344 1.50028 13.8332 3.0791 15.4113C4.65721 16.99 6.7554 17.8587 8.9879 17.8587C11.2204 17.8587 13.3186 16.99 14.8967 15.4113C16.4755 13.8332 17.3449 11.7344 17.3449 9.50199C17.3449 7.2703 16.4755 5.17148 14.8967 3.59343C13.3186 2.01539 11.2204 1.146 8.9879 1.146ZM8.9879 1.47675C13.4207 1.47675 17.0142 5.07004 17.0142 9.50199C17.0142 13.9347 13.4207 17.5279 8.9879 17.5279C4.55505 17.5279 0.961626 13.9347 0.961626 9.50199C0.961626 5.07004 4.55505 1.47675 8.9879 1.47675Z" fill="#EDECF4"/>
<path d="M8.9923 4.93268C8.85085 4.93268 8.71008 4.94051 8.57148 4.95266C8.54005 6.69358 8.11431 8.18236 7.39562 9.44323H10.5861C9.86743 8.18236 9.44234 6.69358 9.4102 4.95266C9.27303 4.94051 9.13376 4.93268 8.9923 4.93268ZM7.29092 9.62252C6.72726 10.5576 5.99929 11.3641 5.14844 12.0514C5.51635 12.6107 6.00217 13.0851 6.57227 13.4387C6.55083 13.3172 6.53939 13.1929 6.53939 13.0658C6.53939 11.7992 7.63744 10.7727 8.99266 10.7727C10.3472 10.7727 11.4459 11.7992 11.4459 13.0658C11.4459 13.1929 11.4345 13.3172 11.413 13.4387C11.9817 13.0858 12.4682 12.6115 12.8354 12.0528C11.9838 11.3656 11.2558 10.5583 10.6915 9.62252H7.29092Z" fill="url(#paint1_linear_560_33336)"/>
<path d="M9.64177 4.97945C11.8735 5.2952 13.5903 7.21186 13.5903 9.52999C13.5903 10.2729 13.4131 10.9737 13.1002 11.5952C11.0749 10.0751 9.84394 7.93337 9.64177 4.97945ZM11.4128 13.4383C11.4342 13.3176 11.4456 13.1933 11.4456 13.0661C11.4456 11.7995 10.3476 10.7723 8.99238 10.7723C7.63788 10.7723 6.53913 11.7995 6.53913 13.0661C6.53913 13.1933 6.55056 13.3176 6.57199 13.4383C6.00262 13.0854 5.51611 12.6111 5.1482 12.051C5.99905 11.3645 6.72702 10.558 7.29068 9.62215H10.6912C11.2556 10.5587 11.9836 11.3652 12.8358 12.0524C12.4679 12.6118 11.9821 13.0854 11.4128 13.4383ZM10.6419 13.8212C10.1297 14.0184 9.5739 14.1277 8.99238 14.1277C8.41086 14.1277 7.85506 14.0184 7.34283 13.8212C7.15566 13.5376 7.04778 13.2026 7.04778 12.8432C7.04778 11.8231 7.91864 10.9959 8.99238 10.9959C10.0668 10.9959 10.9377 11.8231 10.9377 12.8432C10.9377 13.2026 10.8291 13.5376 10.6419 13.8212ZM4.39522 9.52999C4.39522 7.21114 6.11192 5.29449 8.34442 4.97945C8.14224 7.93409 6.91133 10.0758 4.8853 11.5952C4.57239 10.9744 4.39522 10.2729 4.39522 9.52999ZM8.99238 4.93302C9.13383 4.93302 9.27314 4.94016 9.4103 4.95302C9.44245 6.69394 9.86752 8.18197 10.5862 9.44355H7.3957C8.1151 8.18197 8.54016 6.69394 8.5716 4.95302C8.71019 4.94016 8.85093 4.93302 8.99238 4.93302ZM8.99238 4.60226C6.2748 4.60226 4.06445 6.81324 4.06445 9.52999C4.06445 12.2475 6.2748 14.4584 8.99238 14.4584C11.71 14.4584 13.921 12.2475 13.921 9.52999C13.921 6.81324 11.71 4.60226 8.99238 4.60226Z" fill="#EDECF4"/>
<path d="M9.15589 13.3912L8.99229 13.2011L8.8287 13.3912L8.82227 13.409C8.85441 13.474 8.91014 13.554 8.97729 13.6083L8.99229 13.6162L9.00729 13.6083C9.07516 13.554 9.13017 13.474 9.16303 13.409L9.15589 13.3912Z" fill="#C2A24E"/>
<path d="M9.31198 12.3593C9.31198 12.1714 9.06622 11.5856 8.99193 11.5856L8.97335 11.5935C8.88405 11.6664 8.67188 12.1843 8.67188 12.3593C8.67188 12.4993 8.95478 12.8687 8.95478 13.0694L8.99193 13.1065L9.02907 13.0694V13.068C9.0305 12.8672 9.31198 12.4993 9.31198 12.3593Z" fill="#C2A24E"/>
<path d="M8.83211 13.052C8.69923 12.702 8.47063 12.5105 8.23202 12.5105C8.0527 12.5105 7.90625 12.6563 7.90625 12.8363C7.90625 13.0163 8.0814 13.1321 8.23202 13.1621C8.28081 13.1718 8.33685 13.1421 8.3699 13.1049C8.39668 13.0748 8.42398 13.0228 8.40276 12.9885C8.39536 12.9765 8.37375 12.9872 8.36132 12.9806C8.31577 12.9565 8.25194 12.9228 8.25202 12.8713C8.25209 12.8199 8.31003 12.7653 8.36132 12.7627C8.53177 12.7541 8.65708 12.8656 8.75924 13.0849V13.0863L8.75995 13.0878L8.79639 13.1092L8.8364 13.0685L8.83211 13.052" fill="#C2A24E"/>
<path d="M9.74038 12.5104C9.50249 12.5104 9.27317 12.7019 9.14029 13.0519L9.13672 13.0683L9.17672 13.1098L9.21244 13.0876L9.21316 13.0862L9.21387 13.0855C9.31532 12.8654 9.44121 12.7537 9.61179 12.7626C9.66291 12.7652 9.7203 12.82 9.72038 12.8712C9.72046 12.9225 9.65719 12.9565 9.61179 12.9805C9.59916 12.9871 9.57716 12.9762 9.56964 12.9883C9.54828 13.0229 9.57614 13.0752 9.60322 13.1055C9.63618 13.1423 9.69191 13.1716 9.74039 13.1619C9.89096 13.1318 10.0662 13.0162 10.0662 12.8362C10.0662 12.6561 9.92041 12.5104 9.74039 12.5104" fill="#C2A24E"/>
<path d="M11.2493 4.58276L12.0437 2.67254C11.913 2.61396 11.7815 2.56038 11.6472 2.50895L10.8535 4.41774C10.9878 4.46775 11.12 4.52276 11.2493 4.58276Z" fill="#EDECF4"/>
<path d="M8.96089 2.4043H9.72959C9.91747 2.4043 10.0704 2.55717 10.0704 2.74576C10.0704 2.93364 9.91747 3.08652 9.72959 3.08652H8.96089V2.4043ZM8.96089 4.07807V3.45228H9.48455L9.93605 4.16665C10.1154 4.19879 10.2911 4.24023 10.4633 4.28952L9.92176 3.42656C10.2325 3.34369 10.4883 3.07009 10.4883 2.74576C10.4883 2.35572 10.1189 2.03854 9.72959 2.03854H8.54297V4.09521C8.68085 4.0845 8.81944 4.07807 8.96018 4.07807H8.96089H8.96089Z" fill="#EDECF4"/>
<path d="M3.97925 4.42975L4.5422 3.81182C4.66936 3.67252 4.88582 3.66252 5.02442 3.78968C5.16372 3.91612 5.17373 4.13257 5.04656 4.27116L4.48362 4.88981L3.97925 4.42975ZM5.22231 5.56203L4.75366 5.13555L5.33375 4.4969C5.59665 4.20901 5.59665 3.7461 5.30803 3.48321C5.02013 3.22032 4.55148 3.25676 4.28859 3.54465L3.42773 4.49262L4.92797 5.85992C5.02156 5.75634 5.12086 5.65776 5.22231 5.56203Z" fill="#EDECF4"/>
<path d="M13.0576 3.8291C13.367 3.75624 13.9356 4.3213 14.0449 4.70421C14.1349 4.63563 14.3364 4.48775 14.3364 4.48775C14.0956 3.80338 13.1383 3.11902 12.684 3.54764C12.4139 3.80267 12.5668 4.19486 12.8026 4.44275L13.0312 4.68349C13.2641 4.92852 13.4677 5.17283 13.2805 5.32785C13.0812 5.49287 12.5225 5.07925 12.1868 4.36917L11.8867 4.59634C11.9582 4.78279 12.1203 5.05353 12.3375 5.28285C12.584 5.54216 12.8526 5.71147 13.0933 5.75862C13.2827 5.79576 13.4705 5.76719 13.5948 5.65218C13.9049 5.36428 13.792 4.94566 13.3048 4.43274L13.1033 4.22058C12.879 3.98412 12.9705 3.84982 13.0576 3.8291Z" fill="#EDECF4"/>
<path d="M6.58102 3.72065L6.61674 2.83698L7.19826 3.5042C6.98752 3.56564 6.78177 3.6385 6.58102 3.72065ZM6.70533 2.38192C6.55816 2.42836 6.41314 2.47979 6.27026 2.53623L6.11523 4.87936C6.25454 4.79435 6.39742 4.71577 6.54387 4.64291L6.56602 4.09713C6.84821 3.97211 7.14326 3.86924 7.44687 3.78923L7.80693 4.20214C7.96553 4.16785 8.12627 4.1407 8.28915 4.1207L6.70533 2.38192Z" fill="#EDECF4"/>
<path d="M4.98631 14.2585L4.72055 14.3842L4.90487 14.5414L4.98631 14.2585ZM4.88701 15.0078L4.78771 14.9335L4.87129 14.6585L4.60911 14.4356L4.34835 14.5599L4.25977 14.4785L5.02989 14.1149L5.12419 14.1949L4.88701 15.0078Z" fill="#EDECF4"/>
<path d="M5.64742 14.5837L5.21592 15.2387L5.12305 15.1773L5.55454 14.5229L5.64742 14.5837Z" fill="#EDECF4"/>
<path d="M5.98527 14.799L6.11887 15.5305L6.12029 15.5312L6.3932 15.0126L6.49107 15.0647L6.13315 15.7477L6.036 15.7034L5.90097 14.9633L5.89955 14.9626L5.62236 15.4883L5.52734 15.4333L5.8874 14.7475L5.98527 14.799Z" fill="#EDECF4"/>
<path d="M7.31826 15.369L7.28183 15.474L7.02607 15.3847L6.80675 16.014L6.70245 15.9776L6.92177 15.3482L6.66602 15.2597L6.70245 15.1546L7.31826 15.369Z" fill="#EDECF4"/>
<path d="M9.01384 15.9445L9.36746 15.9503L9.36389 16.1546C9.36175 16.2932 9.20815 16.3832 9.01455 16.3803C8.80952 16.3767 8.59734 16.2324 8.60163 15.971C8.60448 15.7509 8.78308 15.5731 9.03027 15.5766C9.21387 15.5795 9.30888 15.6781 9.35317 15.7217L9.2753 15.7995C9.23744 15.7624 9.17886 15.6902 9.03955 15.6881C8.83523 15.6845 8.7145 15.816 8.71236 15.9774C8.7095 16.1288 8.82666 16.266 9.02169 16.2696C9.15529 16.2717 9.25173 16.2117 9.25244 16.146L9.25459 16.0596L9.01169 16.0553L9.01383 15.9445H9.01384Z" fill="#EDECF4"/>
<path d="M10.2142 15.4785L10.2299 15.5885L9.71486 15.6621L9.74415 15.8628L10.0035 15.8249L10.0192 15.9357L9.75987 15.9721L9.79345 16.2057L10.3271 16.1286L10.3428 16.2386L9.69915 16.3307L9.58984 15.5678L10.2142 15.4785Z" fill="#EDECF4"/>
<path d="M10.6183 15.4893L10.6841 15.7072L11.0127 15.6079C11.092 15.5836 11.1249 15.5286 11.1034 15.4572C11.0784 15.3736 11.0084 15.3722 10.947 15.39L10.6183 15.4893ZM10.9148 15.2843C11.0334 15.2486 11.1641 15.275 11.2099 15.425C11.2577 15.5851 11.1656 15.6679 11.1056 15.6915L11.3463 15.9508L11.2299 15.993L10.9905 15.7301L10.7155 15.8129L10.8084 16.123L10.7019 16.153L10.4805 15.415L10.9148 15.2843Z" fill="#EDECF4"/>
<path d="M12.6091 14.5614L12.6655 14.8508L12.8634 14.71L12.6091 14.5614ZM13.3042 14.84L13.207 14.9172L12.9684 14.7708L12.6884 14.9708L12.7419 15.2501L12.6434 15.313L12.4805 14.4836L12.5812 14.4129L13.3042 14.84Z" fill="#EDECF4"/>
<path d="M13.0639 14.029L13.5904 14.5955L13.5068 14.669L12.9824 14.1047L13.0639 14.029Z" fill="#EDECF4"/>
<path d="M13.3692 13.7269L14.1115 13.7784L14.1129 13.7762L13.6771 13.3847L13.7514 13.3026L14.3244 13.8176L14.2579 13.9005L13.5078 13.8491L13.5064 13.8505L13.9479 14.2477L13.87 14.327L13.2949 13.8098L13.3692 13.7269V13.7269Z" fill="#EDECF4"/>
<path d="M12.063 14.7628L11.9644 14.8135L11.9473 15.3593L11.4951 15.0521L11.3965 15.1029L11.733 15.7965L11.8344 15.7515L11.6008 15.2586L11.6022 15.2572L12.0502 15.5608L12.0673 15.02L12.0694 15.0193L12.3316 15.4986L12.4281 15.4443L12.063 14.7628H12.063Z" fill="#EDECF4"/>
<path d="M4.59544 13.7691C4.53258 13.5341 4.29397 13.3034 4.11394 13.3034L4.00606 13.3376L3.94177 13.4448C3.93248 13.5134 3.95963 13.6005 4.01678 13.6763L4.09893 13.7863C4.16252 13.8713 4.22395 13.9599 4.2111 14.0299L4.16395 14.0985L4.11394 14.112C4.00249 14.112 3.81389 13.9134 3.72102 13.6284L3.71959 13.6234L3.63815 13.6998L3.63672 13.7013V13.7027C3.65529 13.7741 3.70387 13.8891 3.78531 13.9984C3.87104 14.1127 3.96891 14.192 4.06036 14.222L4.1468 14.2363L4.24967 14.2063L4.32754 14.0827C4.34112 13.992 4.29325 13.8713 4.18395 13.7263L4.11179 13.6291C4.05393 13.5512 4.05607 13.5012 4.06822 13.4727L4.12894 13.4269L4.14108 13.4262C4.27396 13.4262 4.46114 13.6463 4.50971 13.8163L4.51114 13.8206L4.51471 13.8184L4.5933 13.7734L4.59615 13.772L4.59544 13.7691V13.7691Z" fill="#EDECF4"/>
<path d="M7.98403 15.9769L7.70898 15.9162L7.7347 15.8054L8.00903 15.8669L7.98403 15.9769Z" fill="#EDECF4"/>
</g>
<defs>
<radialGradient id="paint0_radial_560_33336" cx="0" cy="0" r="1" gradientUnits="userSpaceOnUse" gradientTransform="translate(4.98617 5.07064) rotate(44.7822) scale(14.3971 12.9878)">
<stop stop-color="#2277B6"/>
<stop offset="0.104462" stop-color="#4086C2"/>
<stop offset="0.223754" stop-color="#1B73B3"/>
<stop offset="0.539539" stop-color="#124783"/>
<stop offset="0.783627" stop-color="#003E73"/>
<stop offset="1" stop-color="#002448"/>
</radialGradient>
<linearGradient id="paint1_linear_560_33336" x1="8.07652" y1="5.70222" x2="12.1984" y2="13.115" gradientUnits="userSpaceOnUse">
<stop stop-color="#DD4B44"/>
<stop offset="0.203272" stop-color="#DE5448"/>
<stop offset="0.345211" stop-color="#DB3D39"/>
<stop offset="0.48516" stop-color="#CC2C2E"/>
<stop offset="0.749183" stop-color="#AE2826"/>
<stop offset="1" stop-color="#8A211B"/>
</linearGradient>
<clipPath id="clip0_560_33336">
<rect width="18" height="18" fill="white" transform="translate(0 0.500061)"/>
</clipPath>
</defs>
</svg>
