<svg width="297" height="112" viewBox="0 0 297 112" fill="none" xmlns="http://www.w3.org/2000/svg">
<line x1="12" y1="6" x2="12" y2="112" stroke="url(#paint0_linear_560_23274)" stroke-width="2"/>
<circle cx="12" cy="26" r="10.5" fill="#52528E" stroke="#110F1A" stroke-width="3"/>
<circle cx="12" cy="26" r="5.5" fill="#52528E" stroke="#110F1A" stroke-width="5"/>
<path d="M34 6C34 2.68629 36.6863 0 40 0H291C294.314 0 297 2.68629 297 6V69C297 72.3137 294.314 75 291 75H40C36.6863 75 34 72.3137 34 69V6Z" fill="#1F1F37"/>
<path d="M51.0114 32V20.3636H58.7159V22.392H53.4716V25.1648H58.2045V27.1932H53.4716V32H51.0114ZM70.6378 24.4375H68.1491C68.1037 24.1155 68.0109 23.8295 67.8707 23.5795C67.7306 23.3258 67.5507 23.1098 67.331 22.9318C67.1113 22.7538 66.8575 22.6174 66.5696 22.5227C66.2855 22.428 65.9768 22.3807 65.6435 22.3807C65.0412 22.3807 64.5166 22.5303 64.0696 22.8295C63.6226 23.125 63.276 23.5568 63.0298 24.125C62.7836 24.6894 62.6605 25.375 62.6605 26.1818C62.6605 27.0114 62.7836 27.7083 63.0298 28.2727C63.2798 28.8371 63.6283 29.2633 64.0753 29.5511C64.5223 29.839 65.0393 29.983 65.6264 29.983C65.956 29.983 66.2609 29.9394 66.5412 29.8523C66.8253 29.7652 67.0772 29.6383 67.2969 29.4716C67.5166 29.3011 67.6984 29.0947 67.8423 28.8523C67.9901 28.6098 68.0923 28.3333 68.1491 28.0227L70.6378 28.0341C70.5734 28.5682 70.4124 29.0833 70.1548 29.5795C69.901 30.072 69.5582 30.5133 69.1264 30.9034C68.6984 31.2898 68.187 31.5966 67.5923 31.8239C67.0014 32.0473 66.3329 32.1591 65.5866 32.1591C64.5488 32.1591 63.6207 31.9242 62.8026 31.4545C61.9882 30.9848 61.3442 30.3049 60.8707 29.4148C60.401 28.5246 60.1662 27.447 60.1662 26.1818C60.1662 24.9129 60.4048 23.8333 60.8821 22.9432C61.3594 22.053 62.0071 21.375 62.8253 20.9091C63.6435 20.4394 64.5639 20.2045 65.5866 20.2045C66.2609 20.2045 66.8859 20.2992 67.4616 20.4886C68.0412 20.678 68.5545 20.9545 69.0014 21.3182C69.4484 21.678 69.812 22.1193 70.0923 22.642C70.3764 23.1648 70.5582 23.7633 70.6378 24.4375ZM82.4176 23.7102C82.3722 23.2519 82.1771 22.8958 81.8324 22.642C81.4877 22.3883 81.0199 22.2614 80.429 22.2614C80.0275 22.2614 79.6884 22.3182 79.4119 22.4318C79.1354 22.5417 78.9233 22.6951 78.7756 22.892C78.6316 23.089 78.5597 23.3125 78.5597 23.5625C78.5521 23.7708 78.5956 23.9527 78.6903 24.108C78.7888 24.2633 78.9233 24.3977 79.0938 24.5114C79.2642 24.6212 79.4612 24.7178 79.6847 24.8011C79.9081 24.8807 80.1468 24.9489 80.4006 25.0057L81.446 25.2557C81.9536 25.3693 82.4195 25.5208 82.8438 25.7102C83.268 25.8996 83.6354 26.1326 83.946 26.4091C84.2566 26.6856 84.4972 27.0114 84.6676 27.3864C84.8419 27.7614 84.9309 28.1913 84.9347 28.6761C84.9309 29.3883 84.7491 30.0057 84.3892 30.5284C84.0331 31.0473 83.518 31.4508 82.8438 31.7386C82.1733 32.0227 81.3646 32.1648 80.4176 32.1648C79.4782 32.1648 78.66 32.0208 77.9631 31.733C77.2699 31.4451 76.7282 31.0189 76.3381 30.4545C75.9517 29.8864 75.7491 29.1837 75.7301 28.3466H78.1108C78.1373 28.7367 78.2491 29.0625 78.446 29.3239C78.6468 29.5814 78.9138 29.7765 79.2472 29.9091C79.5843 30.0379 79.965 30.1023 80.3892 30.1023C80.8059 30.1023 81.1676 30.0417 81.4744 29.9205C81.785 29.7992 82.0256 29.6307 82.196 29.4148C82.3665 29.1989 82.4517 28.9508 82.4517 28.6705C82.4517 28.4091 82.3741 28.1894 82.2188 28.0114C82.0672 27.8333 81.8438 27.6818 81.5483 27.5568C81.2566 27.4318 80.8987 27.3182 80.4744 27.2159L79.2074 26.8977C78.2263 26.6591 77.4517 26.286 76.8835 25.7784C76.3153 25.2708 76.0331 24.5871 76.0369 23.7273C76.0331 23.0227 76.2206 22.4072 76.5994 21.8807C76.982 21.3542 77.5066 20.9432 78.1733 20.6477C78.84 20.3523 79.5975 20.2045 80.446 20.2045C81.3097 20.2045 82.0634 20.3523 82.7074 20.6477C83.3551 20.9432 83.8589 21.3542 84.2188 21.8807C84.5786 22.4072 84.7642 23.017 84.7756 23.7102H82.4176ZM88.9645 26.9545V32H86.544V23.2727H88.8509V24.8125H88.9531C89.1463 24.3049 89.4702 23.9034 89.9247 23.608C90.3793 23.3087 90.9304 23.1591 91.5781 23.1591C92.1842 23.1591 92.7126 23.2917 93.1634 23.5568C93.6141 23.822 93.9645 24.2008 94.2145 24.6932C94.4645 25.1818 94.5895 25.7652 94.5895 26.4432V32H92.169V26.875C92.1728 26.3409 92.0365 25.9242 91.7599 25.625C91.4834 25.322 91.1027 25.1705 90.6179 25.1705C90.2921 25.1705 90.0043 25.2405 89.7543 25.3807C89.508 25.5208 89.3149 25.7254 89.1747 25.9943C89.0384 26.2595 88.9683 26.5795 88.9645 26.9545ZM100.44 32.1705C99.5578 32.1705 98.7945 31.983 98.1506 31.608C97.5104 31.2292 97.0161 30.7027 96.6676 30.0284C96.3191 29.3504 96.1449 28.5644 96.1449 27.6705C96.1449 26.7689 96.3191 25.9811 96.6676 25.3068C97.0161 24.6288 97.5104 24.1023 98.1506 23.7273C98.7945 23.3485 99.5578 23.1591 100.44 23.1591C101.323 23.1591 102.084 23.3485 102.724 23.7273C103.368 24.1023 103.865 24.6288 104.213 25.3068C104.562 25.9811 104.736 26.7689 104.736 27.6705C104.736 28.5644 104.562 29.3504 104.213 30.0284C103.865 30.7027 103.368 31.2292 102.724 31.608C102.084 31.983 101.323 32.1705 100.44 32.1705ZM100.452 30.2955C100.853 30.2955 101.188 30.1818 101.457 29.9545C101.726 29.7235 101.929 29.4091 102.065 29.0114C102.205 28.6136 102.276 28.161 102.276 27.6534C102.276 27.1458 102.205 26.6932 102.065 26.2955C101.929 25.8977 101.726 25.5833 101.457 25.3523C101.188 25.1212 100.853 25.0057 100.452 25.0057C100.046 25.0057 99.7055 25.1212 99.429 25.3523C99.1563 25.5833 98.9498 25.8977 98.8097 26.2955C98.6733 26.6932 98.6051 27.1458 98.6051 27.6534C98.6051 28.161 98.6733 28.6136 98.8097 29.0114C98.9498 29.4091 99.1563 29.7235 99.429 29.9545C99.7055 30.1818 100.046 30.2955 100.452 30.2955ZM106.31 35.2727V23.2727H108.696V24.7386H108.804C108.91 24.5038 109.063 24.2652 109.264 24.0227C109.469 23.7765 109.734 23.572 110.06 23.4091C110.389 23.2424 110.798 23.1591 111.287 23.1591C111.923 23.1591 112.51 23.3258 113.048 23.6591C113.586 23.9886 114.016 24.4867 114.338 25.1534C114.66 25.8163 114.821 26.6477 114.821 27.6477C114.821 28.6212 114.664 29.4432 114.349 30.1136C114.039 30.7803 113.615 31.286 113.077 31.6307C112.543 31.9716 111.944 32.142 111.281 32.142C110.812 32.142 110.412 32.0644 110.082 31.9091C109.757 31.7538 109.49 31.5587 109.281 31.3239C109.073 31.0852 108.914 30.8447 108.804 30.6023H108.73V35.2727H106.31ZM108.679 27.6364C108.679 28.1553 108.751 28.608 108.895 28.9943C109.039 29.3807 109.247 29.6818 109.52 29.8977C109.793 30.1098 110.124 30.2159 110.514 30.2159C110.908 30.2159 111.241 30.108 111.514 29.892C111.787 29.6723 111.993 29.3693 112.134 28.983C112.277 28.5928 112.349 28.1439 112.349 27.6364C112.349 27.1326 112.279 26.6894 112.139 26.3068C111.999 25.9242 111.793 25.625 111.52 25.4091C111.247 25.1932 110.912 25.0852 110.514 25.0852C110.12 25.0852 109.787 25.1894 109.514 25.3977C109.245 25.6061 109.039 25.9015 108.895 26.2841C108.751 26.6667 108.679 27.1174 108.679 27.6364ZM121.077 23.2727V25.0909H115.821V23.2727H121.077ZM117.014 21.1818H119.435V29.3182C119.435 29.5417 119.469 29.7159 119.537 29.8409C119.605 29.9621 119.7 30.0473 119.821 30.0966C119.946 30.1458 120.09 30.1705 120.253 30.1705C120.366 30.1705 120.48 30.161 120.594 30.142C120.707 30.1193 120.795 30.1023 120.855 30.0909L121.236 31.892C121.115 31.9299 120.944 31.9735 120.724 32.0227C120.505 32.0758 120.238 32.108 119.923 32.1193C119.34 32.142 118.829 32.0644 118.389 31.8864C117.954 31.7083 117.615 31.4318 117.372 31.0568C117.13 30.6818 117.01 30.2083 117.014 29.6364V21.1818ZM136.669 24.4375H134.18C134.135 24.1155 134.042 23.8295 133.902 23.5795C133.762 23.3258 133.582 23.1098 133.362 22.9318C133.143 22.7538 132.889 22.6174 132.601 22.5227C132.317 22.428 132.008 22.3807 131.675 22.3807C131.072 22.3807 130.548 22.5303 130.101 22.8295C129.654 23.125 129.307 23.5568 129.061 24.125C128.815 24.6894 128.692 25.375 128.692 26.1818C128.692 27.0114 128.815 27.7083 129.061 28.2727C129.311 28.8371 129.66 29.2633 130.107 29.5511C130.554 29.839 131.071 29.983 131.658 29.983C131.987 29.983 132.292 29.9394 132.572 29.8523C132.857 29.7652 133.108 29.6383 133.328 29.4716C133.548 29.3011 133.73 29.0947 133.874 28.8523C134.021 28.6098 134.124 28.3333 134.18 28.0227L136.669 28.0341C136.605 28.5682 136.444 29.0833 136.186 29.5795C135.932 30.072 135.589 30.5133 135.158 30.9034C134.73 31.2898 134.218 31.5966 133.624 31.8239C133.033 32.0473 132.364 32.1591 131.618 32.1591C130.58 32.1591 129.652 31.9242 128.834 31.4545C128.019 30.9848 127.375 30.3049 126.902 29.4148C126.432 28.5246 126.197 27.447 126.197 26.1818C126.197 24.9129 126.436 23.8333 126.913 22.9432C127.391 22.053 128.038 21.375 128.857 20.9091C129.675 20.4394 130.595 20.2045 131.618 20.2045C132.292 20.2045 132.917 20.2992 133.493 20.4886C134.072 20.678 134.586 20.9545 135.033 21.3182C135.48 21.678 135.843 22.1193 136.124 22.642C136.408 23.1648 136.589 23.7633 136.669 24.4375ZM142.331 32.1705C141.448 32.1705 140.685 31.983 140.041 31.608C139.401 31.2292 138.907 30.7027 138.558 30.0284C138.21 29.3504 138.036 28.5644 138.036 27.6705C138.036 26.7689 138.21 25.9811 138.558 25.3068C138.907 24.6288 139.401 24.1023 140.041 23.7273C140.685 23.3485 141.448 23.1591 142.331 23.1591C143.214 23.1591 143.975 23.3485 144.615 23.7273C145.259 24.1023 145.755 24.6288 146.104 25.3068C146.452 25.9811 146.626 26.7689 146.626 27.6705C146.626 28.5644 146.452 29.3504 146.104 30.0284C145.755 30.7027 145.259 31.2292 144.615 31.608C143.975 31.983 143.214 32.1705 142.331 32.1705ZM142.342 30.2955C142.744 30.2955 143.079 30.1818 143.348 29.9545C143.617 29.7235 143.82 29.4091 143.956 29.0114C144.096 28.6136 144.166 28.161 144.166 27.6534C144.166 27.1458 144.096 26.6932 143.956 26.2955C143.82 25.8977 143.617 25.5833 143.348 25.3523C143.079 25.1212 142.744 25.0057 142.342 25.0057C141.937 25.0057 141.596 25.1212 141.32 25.3523C141.047 25.5833 140.84 25.8977 140.7 26.2955C140.564 26.6932 140.496 27.1458 140.496 27.6534C140.496 28.161 140.564 28.6136 140.7 29.0114C140.84 29.4091 141.047 29.7235 141.32 29.9545C141.596 30.1818 141.937 30.2955 142.342 30.2955ZM150.621 26.9545V32H148.2V23.2727H150.507V24.8125H150.609C150.803 24.3049 151.126 23.9034 151.581 23.608C152.036 23.3087 152.587 23.1591 153.234 23.1591C153.84 23.1591 154.369 23.2917 154.82 23.5568C155.27 23.822 155.621 24.2008 155.871 24.6932C156.121 25.1818 156.246 25.7652 156.246 26.4432V32H153.825V26.875C153.829 26.3409 153.693 25.9242 153.416 25.625C153.14 25.322 152.759 25.1705 152.274 25.1705C151.948 25.1705 151.661 25.2405 151.411 25.3807C151.164 25.5208 150.971 25.7254 150.831 25.9943C150.695 26.2595 150.625 26.5795 150.621 26.9545ZM160.574 26.9545V32H158.153V23.2727H160.46V24.8125H160.562C160.756 24.3049 161.08 23.9034 161.534 23.608C161.989 23.3087 162.54 23.1591 163.188 23.1591C163.794 23.1591 164.322 23.2917 164.773 23.5568C165.223 23.822 165.574 24.2008 165.824 24.6932C166.074 25.1818 166.199 25.7652 166.199 26.4432V32H163.778V26.875C163.782 26.3409 163.646 25.9242 163.369 25.625C163.093 25.322 162.712 25.1705 162.227 25.1705C161.902 25.1705 161.614 25.2405 161.364 25.3807C161.117 25.5208 160.924 25.7254 160.784 25.9943C160.648 26.2595 160.578 26.5795 160.574 26.9545ZM172.084 32.1705C171.186 32.1705 170.413 31.9886 169.766 31.625C169.122 31.2576 168.625 30.7386 168.277 30.0682C167.929 29.3939 167.754 28.5966 167.754 27.6761C167.754 26.7784 167.929 25.9905 168.277 25.3125C168.625 24.6345 169.116 24.1061 169.749 23.7273C170.385 23.3485 171.131 23.1591 171.987 23.1591C172.563 23.1591 173.099 23.2519 173.595 23.4375C174.095 23.6193 174.531 23.8939 174.902 24.2614C175.277 24.6288 175.569 25.0909 175.777 25.6477C175.985 26.2008 176.089 26.8485 176.089 27.5909V28.2557H168.72V26.7557H173.811C173.811 26.4072 173.735 26.0985 173.584 25.8295C173.432 25.5606 173.222 25.3504 172.953 25.1989C172.688 25.0436 172.379 24.9659 172.027 24.9659C171.66 24.9659 171.334 25.0511 171.05 25.2216C170.769 25.3883 170.55 25.6136 170.391 25.8977C170.232 26.178 170.15 26.4905 170.146 26.8352V28.2614C170.146 28.6932 170.226 29.0663 170.385 29.3807C170.548 29.6951 170.777 29.9375 171.072 30.108C171.368 30.2784 171.718 30.3636 172.124 30.3636C172.393 30.3636 172.639 30.3258 172.862 30.25C173.086 30.1742 173.277 30.0606 173.436 29.9091C173.595 29.7576 173.716 29.572 173.8 29.3523L176.038 29.5C175.925 30.0379 175.692 30.5076 175.339 30.9091C174.991 31.3068 174.54 31.6174 173.987 31.8409C173.438 32.0606 172.804 32.1705 172.084 32.1705ZM181.612 32.1705C180.718 32.1705 179.949 31.9811 179.305 31.6023C178.665 31.2197 178.173 30.6894 177.828 30.0114C177.487 29.3333 177.317 28.553 177.317 27.6705C177.317 26.7765 177.489 25.9924 177.834 25.3182C178.182 24.6402 178.677 24.1117 179.317 23.733C179.957 23.3504 180.718 23.1591 181.601 23.1591C182.362 23.1591 183.029 23.2973 183.601 23.5739C184.173 23.8504 184.625 24.2386 184.959 24.7386C185.292 25.2386 185.476 25.8258 185.51 26.5H183.226C183.161 26.0644 182.991 25.714 182.714 25.4489C182.442 25.1799 182.084 25.0455 181.641 25.0455C181.266 25.0455 180.938 25.1477 180.658 25.3523C180.381 25.553 180.165 25.8466 180.01 26.233C179.855 26.6193 179.777 27.0871 179.777 27.6364C179.777 28.1932 179.853 28.6667 180.004 29.0568C180.16 29.447 180.377 29.7443 180.658 29.9489C180.938 30.1534 181.266 30.2557 181.641 30.2557C181.917 30.2557 182.165 30.1989 182.385 30.0852C182.608 29.9716 182.792 29.8068 182.936 29.5909C183.084 29.3712 183.18 29.108 183.226 28.8011H185.51C185.472 29.4678 185.29 30.0549 184.964 30.5625C184.643 31.0663 184.197 31.4602 183.629 31.7443C183.061 32.0284 182.389 32.1705 181.612 32.1705ZM191.702 23.2727V25.0909H186.446V23.2727H191.702ZM187.639 21.1818H190.06V29.3182C190.06 29.5417 190.094 29.7159 190.162 29.8409C190.23 29.9621 190.325 30.0473 190.446 30.0966C190.571 30.1458 190.715 30.1705 190.878 30.1705C190.991 30.1705 191.105 30.161 191.219 30.142C191.332 30.1193 191.42 30.1023 191.48 30.0909L191.861 31.892C191.74 31.9299 191.569 31.9735 191.349 32.0227C191.13 32.0758 190.863 32.108 190.548 32.1193C189.965 32.142 189.454 32.0644 189.014 31.8864C188.579 31.7083 188.24 31.4318 187.997 31.0568C187.755 30.6818 187.635 30.2083 187.639 29.6364V21.1818Z" fill="#EDECF4"/>
<path d="M51.2045 54V52.9773L55.0455 48.7727C55.4962 48.2803 55.8674 47.8523 56.1591 47.4886C56.4508 47.1212 56.6667 46.7765 56.8068 46.4545C56.9508 46.1288 57.0227 45.7879 57.0227 45.4318C57.0227 45.0227 56.9242 44.6686 56.7273 44.3693C56.5341 44.0701 56.2689 43.839 55.9318 43.6761C55.5947 43.5133 55.2159 43.4318 54.7955 43.4318C54.3485 43.4318 53.9583 43.5246 53.625 43.7102C53.2955 43.892 53.0398 44.1477 52.858 44.4773C52.6799 44.8068 52.5909 45.1932 52.5909 45.6364H51.25C51.25 44.9545 51.4072 44.3561 51.7216 43.8409C52.036 43.3258 52.464 42.9242 53.0057 42.6364C53.5511 42.3485 54.1629 42.2045 54.8409 42.2045C55.5227 42.2045 56.1269 42.3485 56.6534 42.6364C57.1799 42.9242 57.5928 43.3125 57.892 43.8011C58.1913 44.2898 58.3409 44.8333 58.3409 45.4318C58.3409 45.8598 58.2633 46.2784 58.108 46.6875C57.9564 47.0928 57.6913 47.5455 57.3125 48.0455C56.9375 48.5417 56.4167 49.1477 55.75 49.8636L53.1364 52.6591V52.75H58.5455V54H51.2045ZM64.6875 54.1591C63.8314 54.1591 63.1023 53.9261 62.5 53.4602C61.8977 52.9905 61.4375 52.3106 61.1193 51.4205C60.8011 50.5265 60.642 49.447 60.642 48.1818C60.642 46.9242 60.8011 45.8504 61.1193 44.9602C61.4413 44.0663 61.9034 43.3845 62.5057 42.9148C63.1117 42.4413 63.839 42.2045 64.6875 42.2045C65.536 42.2045 66.2614 42.4413 66.8636 42.9148C67.4697 43.3845 67.9318 44.0663 68.25 44.9602C68.572 45.8504 68.733 46.9242 68.733 48.1818C68.733 49.447 68.5739 50.5265 68.2557 51.4205C67.9375 52.3106 67.4773 52.9905 66.875 53.4602C66.2727 53.9261 65.5436 54.1591 64.6875 54.1591ZM64.6875 52.9091C65.536 52.9091 66.1951 52.5 66.6648 51.6818C67.1345 50.8636 67.3693 49.697 67.3693 48.1818C67.3693 47.1742 67.2614 46.3163 67.0455 45.608C66.8333 44.8996 66.5265 44.3598 66.125 43.9886C65.7273 43.6174 65.2481 43.4318 64.6875 43.4318C63.8466 43.4318 63.1894 43.8466 62.7159 44.6761C62.2424 45.5019 62.0057 46.6705 62.0057 48.1818C62.0057 49.1894 62.1117 50.0455 62.3239 50.75C62.536 51.4545 62.8409 51.9905 63.2386 52.358C63.6402 52.7254 64.1231 52.9091 64.6875 52.9091ZM74.983 42.3636V54H73.5739V43.8409H73.5057L70.6648 45.7273V44.2955L73.5739 42.3636H74.983ZM82.1932 54.1591C81.7159 54.1515 81.2386 54.0606 80.7614 53.8864C80.2841 53.7121 79.8485 53.4186 79.4545 53.0057C79.0606 52.589 78.7443 52.0265 78.5057 51.3182C78.267 50.6061 78.1477 49.7121 78.1477 48.6364C78.1477 47.6061 78.2443 46.6932 78.4375 45.8977C78.6307 45.0985 78.911 44.4261 79.2784 43.8807C79.6458 43.3314 80.089 42.9148 80.608 42.6307C81.1307 42.3466 81.7197 42.2045 82.375 42.2045C83.0265 42.2045 83.6061 42.3352 84.1136 42.5966C84.625 42.8542 85.0417 43.214 85.3636 43.6761C85.6856 44.1383 85.8939 44.6705 85.9886 45.2727H84.6023C84.4735 44.75 84.2235 44.3163 83.8523 43.9716C83.4811 43.6269 82.9886 43.4545 82.375 43.4545C81.4735 43.4545 80.7633 43.8466 80.2443 44.6307C79.7292 45.4148 79.4697 46.5152 79.4659 47.9318H79.5568C79.7689 47.6098 80.0208 47.3352 80.3125 47.108C80.608 46.8769 80.9337 46.6989 81.2898 46.5739C81.6458 46.4489 82.0227 46.3864 82.4205 46.3864C83.0871 46.3864 83.697 46.553 84.25 46.8864C84.803 47.2159 85.2462 47.6723 85.5795 48.2557C85.9129 48.8352 86.0795 49.5 86.0795 50.25C86.0795 50.9697 85.9186 51.6288 85.5966 52.2273C85.2746 52.822 84.822 53.2955 84.2386 53.6477C83.6591 53.9962 82.9773 54.1667 82.1932 54.1591ZM82.1932 52.9091C82.6705 52.9091 83.0985 52.7898 83.4773 52.5511C83.8598 52.3125 84.161 51.9924 84.3807 51.5909C84.6042 51.1894 84.7159 50.7424 84.7159 50.25C84.7159 49.7689 84.608 49.3314 84.392 48.9375C84.1799 48.5398 83.8864 48.2235 83.5114 47.9886C83.1402 47.7538 82.7159 47.6364 82.2386 47.6364C81.8788 47.6364 81.5436 47.7083 81.233 47.8523C80.9223 47.9924 80.6496 48.1856 80.4148 48.4318C80.1837 48.678 80.0019 48.9602 79.8693 49.2784C79.7367 49.5928 79.6705 49.9242 79.6705 50.2727C79.6705 50.7348 79.7784 51.1667 79.9943 51.5682C80.214 51.9697 80.5133 52.2936 80.892 52.5398C81.2746 52.786 81.7083 52.9091 82.1932 52.9091ZM99.6094 47.5568V48.8068H91.6094V47.5568H99.6094ZM105.518 54V42.3636H112.541V43.6136H106.928V47.5455H112.178V48.7955H106.928V52.75H112.632V54H105.518ZM116.24 48.75V54H114.899V45.2727H116.195V46.6364H116.308C116.513 46.1932 116.823 45.8371 117.24 45.5682C117.657 45.2955 118.195 45.1591 118.854 45.1591C119.445 45.1591 119.962 45.2803 120.405 45.5227C120.848 45.7614 121.193 46.125 121.439 46.6136C121.685 47.0985 121.808 47.7121 121.808 48.4545V54H120.467V48.5455C120.467 47.8598 120.289 47.3258 119.933 46.9432C119.577 46.5568 119.089 46.3636 118.467 46.3636C118.039 46.3636 117.657 46.4564 117.32 46.642C116.986 46.8277 116.723 47.0985 116.53 47.4545C116.337 47.8106 116.24 48.2424 116.24 48.75ZM132.304 54.1818C131.486 54.1818 130.781 53.9886 130.19 53.6023C129.599 53.2159 129.145 52.6837 128.827 52.0057C128.509 51.3277 128.349 50.553 128.349 49.6818C128.349 48.7955 128.512 48.0133 128.838 47.3352C129.168 46.6534 129.626 46.1212 130.213 45.7386C130.804 45.3523 131.493 45.1591 132.281 45.1591C132.895 45.1591 133.448 45.2727 133.94 45.5C134.433 45.7273 134.836 46.0455 135.151 46.4545C135.465 46.8636 135.66 47.3409 135.736 47.8864H134.395C134.293 47.4886 134.065 47.1364 133.713 46.8295C133.365 46.5189 132.895 46.3636 132.304 46.3636C131.781 46.3636 131.323 46.5 130.929 46.7727C130.539 47.0417 130.234 47.4223 130.014 47.9148C129.798 48.4034 129.69 48.9773 129.69 49.6364C129.69 50.3106 129.796 50.8977 130.009 51.3977C130.224 51.8977 130.527 52.286 130.918 52.5625C131.312 52.839 131.774 52.9773 132.304 52.9773C132.652 52.9773 132.969 52.9167 133.253 52.7955C133.537 52.6742 133.777 52.5 133.974 52.2727C134.171 52.0455 134.312 51.7727 134.395 51.4545H135.736C135.66 51.9697 135.473 52.4337 135.173 52.8466C134.878 53.2557 134.486 53.5814 133.997 53.8239C133.512 54.0625 132.948 54.1818 132.304 54.1818ZM141.241 54.1818C140.454 54.1818 139.762 53.9943 139.168 53.6193C138.577 53.2443 138.115 52.7197 137.781 52.0455C137.452 51.3712 137.287 50.5833 137.287 49.6818C137.287 48.7727 137.452 47.9792 137.781 47.3011C138.115 46.6231 138.577 46.0966 139.168 45.7216C139.762 45.3466 140.454 45.1591 141.241 45.1591C142.029 45.1591 142.719 45.3466 143.31 45.7216C143.904 46.0966 144.366 46.6231 144.696 47.3011C145.029 47.9792 145.196 48.7727 145.196 49.6818C145.196 50.5833 145.029 51.3712 144.696 52.0455C144.366 52.7197 143.904 53.2443 143.31 53.6193C142.719 53.9943 142.029 54.1818 141.241 54.1818ZM141.241 52.9773C141.84 52.9773 142.332 52.8239 142.719 52.517C143.105 52.2102 143.391 51.8068 143.577 51.3068C143.762 50.8068 143.855 50.2652 143.855 49.6818C143.855 49.0985 143.762 48.5549 143.577 48.0511C143.391 47.5473 143.105 47.1402 142.719 46.8295C142.332 46.5189 141.84 46.3636 141.241 46.3636C140.643 46.3636 140.151 46.5189 139.764 46.8295C139.378 47.1402 139.092 47.5473 138.906 48.0511C138.721 48.5549 138.628 49.0985 138.628 49.6818C138.628 50.2652 138.721 50.8068 138.906 51.3068C139.092 51.8068 139.378 52.2102 139.764 52.517C140.151 52.8239 140.643 52.9773 141.241 52.9773ZM152.743 50.4318V45.2727H154.084V54H152.743V52.5227H152.652C152.447 52.9659 152.129 53.3428 151.697 53.6534C151.266 53.9602 150.72 54.1136 150.061 54.1136C149.516 54.1136 149.031 53.9943 148.607 53.7557C148.182 53.5133 147.849 53.1496 147.607 52.6648C147.364 52.1761 147.243 51.5606 147.243 50.8182V45.2727H148.584V50.7273C148.584 51.3636 148.762 51.8712 149.118 52.25C149.478 52.6288 149.936 52.8182 150.493 52.8182C150.826 52.8182 151.165 52.733 151.51 52.5625C151.858 52.392 152.15 52.1307 152.385 51.7784C152.624 51.4261 152.743 50.9773 152.743 50.4318ZM156.54 54V45.2727H157.835V46.5909H157.926C158.085 46.1591 158.373 45.8087 158.79 45.5398C159.206 45.2708 159.676 45.1364 160.199 45.1364C160.297 45.1364 160.42 45.1383 160.568 45.142C160.716 45.1458 160.828 45.1515 160.903 45.1591V46.5227C160.858 46.5114 160.754 46.4943 160.591 46.4716C160.432 46.4451 160.263 46.4318 160.085 46.4318C159.661 46.4318 159.282 46.5208 158.949 46.6989C158.619 46.8731 158.358 47.1155 158.165 47.4261C157.975 47.733 157.881 48.0833 157.881 48.4773V54H156.54ZM168.675 47.2273L167.47 47.5682C167.394 47.3674 167.283 47.1723 167.135 46.983C166.991 46.7898 166.794 46.6307 166.544 46.5057C166.294 46.3807 165.974 46.3182 165.584 46.3182C165.05 46.3182 164.605 46.4413 164.249 46.6875C163.896 46.9299 163.72 47.2386 163.72 47.6136C163.72 47.947 163.841 48.2102 164.084 48.4034C164.326 48.5966 164.705 48.7576 165.22 48.8864L166.516 49.2045C167.296 49.3939 167.877 49.6837 168.26 50.0739C168.643 50.4602 168.834 50.9583 168.834 51.5682C168.834 52.0682 168.69 52.5152 168.402 52.9091C168.118 53.303 167.72 53.6136 167.209 53.8409C166.697 54.0682 166.103 54.1818 165.425 54.1818C164.535 54.1818 163.798 53.9886 163.214 53.6023C162.631 53.2159 162.262 52.6515 162.107 51.9091L163.379 51.5909C163.5 52.0606 163.73 52.4129 164.067 52.6477C164.408 52.8826 164.853 53 165.402 53C166.027 53 166.523 52.8674 166.891 52.6023C167.262 52.3333 167.447 52.0114 167.447 51.6364C167.447 51.3333 167.341 51.0795 167.129 50.875C166.917 50.6667 166.591 50.5114 166.152 50.4091L164.697 50.0682C163.898 49.8788 163.311 49.5852 162.936 49.1875C162.565 48.786 162.379 48.2841 162.379 47.6818C162.379 47.1894 162.518 46.7538 162.794 46.375C163.074 45.9962 163.455 45.6989 163.936 45.483C164.421 45.267 164.97 45.1591 165.584 45.1591C166.447 45.1591 167.125 45.3485 167.618 45.7273C168.114 46.1061 168.466 46.6061 168.675 47.2273Z" fill="#CBCBE1"/>
<rect x="209" y="16" width="69" height="30" rx="2" fill="#303054"/>
<path d="M218.034 37V35.4773L222.074 31.517C222.46 31.1269 222.782 30.7803 223.04 30.4773C223.297 30.1742 223.491 29.8807 223.619 29.5966C223.748 29.3125 223.812 29.0095 223.812 28.6875C223.812 28.3201 223.729 28.0057 223.562 27.7443C223.396 27.4792 223.167 27.2746 222.875 27.1307C222.583 26.9867 222.252 26.9148 221.881 26.9148C221.498 26.9148 221.163 26.9943 220.875 27.1534C220.587 27.3087 220.364 27.5303 220.205 27.8182C220.049 28.1061 219.972 28.4489 219.972 28.8466H217.966C217.966 28.108 218.134 27.4659 218.472 26.9205C218.809 26.375 219.273 25.9527 219.864 25.6534C220.458 25.3542 221.14 25.2045 221.909 25.2045C222.689 25.2045 223.375 25.3504 223.966 25.642C224.557 25.9337 225.015 26.3333 225.341 26.8409C225.67 27.3485 225.835 27.928 225.835 28.5795C225.835 29.0152 225.752 29.4432 225.585 29.8636C225.419 30.2841 225.125 30.75 224.705 31.2614C224.288 31.7727 223.703 32.392 222.949 33.1193L220.943 35.1591V35.2386H226.011V37H218.034ZM232.148 37.1591C231.33 37.1591 230.602 37.0189 229.966 36.7386C229.333 36.4583 228.833 36.0682 228.466 35.5682C228.098 35.0682 227.903 34.4905 227.881 33.8352H230.017C230.036 34.1496 230.14 34.4242 230.33 34.6591C230.519 34.8902 230.771 35.0701 231.085 35.1989C231.4 35.3277 231.752 35.392 232.142 35.392C232.559 35.392 232.928 35.3201 233.25 35.1761C233.572 35.0284 233.824 34.8239 234.006 34.5625C234.188 34.3011 234.277 34 234.273 33.6591C234.277 33.3068 234.186 32.9962 234 32.7273C233.814 32.4583 233.545 32.2481 233.193 32.0966C232.845 31.9451 232.424 31.8693 231.932 31.8693H230.903V30.2443H231.932C232.337 30.2443 232.691 30.1742 232.994 30.0341C233.301 29.8939 233.542 29.697 233.716 29.4432C233.89 29.1856 233.975 28.8883 233.972 28.5511C233.975 28.2216 233.902 27.9356 233.75 27.6932C233.602 27.447 233.392 27.2557 233.119 27.1193C232.85 26.983 232.534 26.9148 232.17 26.9148C231.814 26.9148 231.485 26.9792 231.182 27.108C230.879 27.2367 230.634 27.4205 230.449 27.6591C230.263 27.8939 230.165 28.1742 230.153 28.5H228.125C228.14 27.8485 228.328 27.2765 228.688 26.7841C229.051 26.2879 229.536 25.9015 230.142 25.625C230.748 25.3447 231.428 25.2045 232.182 25.2045C232.958 25.2045 233.633 25.3504 234.205 25.642C234.78 25.9299 235.225 26.3182 235.54 26.8068C235.854 27.2955 236.011 27.8352 236.011 28.4261C236.015 29.0814 235.822 29.6307 235.432 30.0739C235.045 30.517 234.538 30.8068 233.909 30.9432V31.0341C234.727 31.1477 235.354 31.4508 235.79 31.9432C236.229 32.4318 236.447 33.0398 236.443 33.767C236.443 34.4186 236.258 35.0019 235.886 35.517C235.519 36.0284 235.011 36.4299 234.364 36.7216C233.72 37.0133 232.981 37.1591 232.148 37.1591ZM244.896 37.1761C244.343 37.1761 243.845 37.0777 243.402 36.8807C242.963 36.6799 242.614 36.3845 242.357 35.9943C242.103 35.6042 241.976 35.1231 241.976 34.5511C241.976 34.0587 242.067 33.6515 242.249 33.3295C242.43 33.0076 242.679 32.75 242.993 32.5568C243.307 32.3636 243.661 32.2178 244.055 32.1193C244.453 32.017 244.864 31.9432 245.288 31.8977C245.8 31.8447 246.214 31.7973 246.533 31.7557C246.851 31.7102 247.082 31.642 247.226 31.5511C247.374 31.4564 247.447 31.3106 247.447 31.1136V31.0795C247.447 30.6515 247.321 30.3201 247.067 30.0852C246.813 29.8504 246.447 29.733 245.97 29.733C245.466 29.733 245.067 29.8428 244.771 30.0625C244.48 30.2822 244.283 30.5417 244.18 30.8409L242.26 30.5682C242.411 30.0379 242.661 29.5947 243.01 29.2386C243.358 28.8788 243.785 28.6098 244.288 28.4318C244.792 28.25 245.349 28.1591 245.959 28.1591C246.379 28.1591 246.798 28.2083 247.214 28.3068C247.631 28.4053 248.012 28.5682 248.357 28.7955C248.701 29.0189 248.978 29.3239 249.186 29.7102C249.398 30.0966 249.504 30.5795 249.504 31.1591V37H247.527V35.8011H247.459C247.334 36.0436 247.158 36.2708 246.93 36.483C246.707 36.6913 246.425 36.8598 246.084 36.9886C245.747 37.1136 245.351 37.1761 244.896 37.1761ZM245.43 35.6648C245.843 35.6648 246.201 35.5833 246.504 35.4205C246.807 35.2538 247.04 35.0341 247.203 34.7614C247.37 34.4886 247.453 34.1913 247.453 33.8693V32.8409C247.389 32.8939 247.279 32.9432 247.124 32.9886C246.972 33.0341 246.802 33.0739 246.612 33.108C246.423 33.142 246.235 33.1723 246.05 33.1989C245.864 33.2254 245.703 33.2481 245.567 33.267C245.26 33.3087 244.985 33.3769 244.743 33.4716C244.5 33.5663 244.309 33.6989 244.169 33.8693C244.029 34.036 243.959 34.2519 243.959 34.517C243.959 34.8958 244.097 35.1818 244.374 35.375C244.65 35.5682 245.002 35.6648 245.43 35.6648ZM253.629 31.8864V37H251.572V28.2727H253.538V29.7557H253.641C253.841 29.267 254.161 28.8788 254.601 28.5909C255.044 28.303 255.591 28.1591 256.243 28.1591C256.845 28.1591 257.37 28.2879 257.817 28.5455C258.268 28.803 258.616 29.1761 258.862 29.6648C259.112 30.1534 259.235 30.7462 259.232 31.4432V37H257.175V31.7614C257.175 31.178 257.023 30.7216 256.72 30.392C256.421 30.0625 256.006 29.8977 255.476 29.8977C255.116 29.8977 254.796 29.9773 254.516 30.1364C254.239 30.2917 254.021 30.517 253.862 30.8125C253.707 31.108 253.629 31.4659 253.629 31.8864ZM268.22 30.5795L266.345 30.7841C266.292 30.5947 266.199 30.4167 266.067 30.25C265.938 30.0833 265.764 29.9489 265.544 29.8466C265.324 29.7443 265.055 29.6932 264.737 29.6932C264.309 29.6932 263.949 29.786 263.658 29.9716C263.37 30.1572 263.228 30.3977 263.232 30.6932C263.228 30.947 263.321 31.1534 263.51 31.3125C263.703 31.4716 264.021 31.6023 264.464 31.7045L265.953 32.0227C266.779 32.2008 267.393 32.483 267.794 32.8693C268.199 33.2557 268.404 33.7614 268.408 34.3864C268.404 34.9356 268.243 35.4205 267.925 35.8409C267.61 36.2576 267.173 36.5833 266.612 36.8182C266.052 37.053 265.408 37.1705 264.68 37.1705C263.612 37.1705 262.752 36.947 262.101 36.5C261.449 36.0492 261.061 35.4223 260.936 34.6193L262.942 34.4261C263.033 34.8201 263.226 35.1174 263.521 35.3182C263.817 35.5189 264.201 35.6193 264.675 35.6193C265.163 35.6193 265.555 35.5189 265.851 35.3182C266.15 35.1174 266.3 34.8693 266.3 34.5739C266.3 34.3239 266.203 34.1174 266.01 33.9545C265.821 33.7917 265.525 33.6667 265.124 33.5795L263.635 33.267C262.798 33.0928 262.179 32.7992 261.777 32.3864C261.375 31.9697 261.177 31.4432 261.18 30.8068C261.177 30.2689 261.322 29.803 261.618 29.4091C261.917 29.0114 262.332 28.7045 262.862 28.4886C263.396 28.2689 264.012 28.1591 264.709 28.1591C265.732 28.1591 266.536 28.3769 267.124 28.8125C267.714 29.2481 268.08 29.8371 268.22 30.5795Z" fill="white"/>
<defs>
<linearGradient id="paint0_linear_560_23274" x1="11" y1="6" x2="11" y2="112" gradientUnits="userSpaceOnUse">
<stop stop-color="#52528E" stop-opacity="0.0566038"/>
<stop offset="0.260417" stop-color="#52528E"/>
<stop offset="0.604167" stop-color="#52528E"/>
<stop offset="1" stop-color="#52528E" stop-opacity="0"/>
<stop offset="1" stop-color="#52528E" stop-opacity="0"/>
</linearGradient>
</defs>
</svg>
