<svg width="237" height="102" viewBox="0 0 237 102" fill="none" xmlns="http://www.w3.org/2000/svg">
<rect width="236.333" height="102" rx="4" fill="#1F1F37"/>
<rect x="0.5" y="0.5" width="235.333" height="101" rx="3.5" stroke="#ABABCE" stroke-opacity="0.25"/>
<rect x="12" y="12" width="107" height="24" rx="3" fill="#52528E"/>
<rect x="12.5" y="12.5" width="106" height="23" rx="2.5" stroke="#ABABCE" stroke-opacity="0.25"/>
<path d="M20.233 29V18.8182H23.6733C24.4721 18.8182 25.125 18.9624 25.6321 19.2507C26.1425 19.5357 26.5204 19.9219 26.7656 20.4091C27.0109 20.8963 27.1335 21.4399 27.1335 22.0398C27.1335 22.6397 27.0109 23.1849 26.7656 23.6754C26.5237 24.166 26.1491 24.5571 25.642 24.8487C25.1349 25.1371 24.4853 25.2812 23.6932 25.2812H21.2273V24.1875H23.6534C24.2003 24.1875 24.6394 24.093 24.9709 23.9041C25.3023 23.7152 25.5426 23.46 25.6918 23.1385C25.8442 22.8137 25.9205 22.4474 25.9205 22.0398C25.9205 21.6321 25.8442 21.2675 25.6918 20.946C25.5426 20.6245 25.3007 20.3726 24.9659 20.1903C24.6312 20.0047 24.187 19.9119 23.6335 19.9119H21.4659V29H20.233ZM32.0803 29.1591C31.3445 29.1591 30.7098 28.9967 30.1761 28.6719C29.6458 28.3438 29.2365 27.8864 28.9482 27.2997C28.6631 26.7098 28.5206 26.0237 28.5206 25.2415C28.5206 24.4593 28.6631 23.7699 28.9482 23.1733C29.2365 22.5734 29.6375 22.1061 30.1513 21.7713C30.6683 21.4332 31.2715 21.2642 31.9609 21.2642C32.3587 21.2642 32.7514 21.3305 33.1392 21.4631C33.527 21.5956 33.88 21.8111 34.1982 22.1094C34.5163 22.4044 34.7699 22.7955 34.9588 23.2827C35.1477 23.7699 35.2422 24.3698 35.2422 25.0824V25.5795H29.3558V24.5653H34.049C34.049 24.1345 33.9628 23.75 33.7905 23.4119C33.6214 23.0739 33.3795 22.8071 33.0646 22.6115C32.7531 22.416 32.3852 22.3182 31.9609 22.3182C31.4936 22.3182 31.0893 22.4342 30.7479 22.6662C30.4098 22.8949 30.1496 23.1932 29.9673 23.5611C29.785 23.929 29.6939 24.3234 29.6939 24.7443V25.4205C29.6939 25.9972 29.7933 26.486 29.9922 26.8871C30.1944 27.2848 30.4744 27.5881 30.8324 27.7969C31.1903 28.0024 31.6063 28.1051 32.0803 28.1051C32.3885 28.1051 32.6669 28.062 32.9155 27.9759C33.1674 27.8864 33.3845 27.7538 33.5668 27.5781C33.7491 27.3991 33.8899 27.1771 33.9893 26.9119L35.1229 27.2301C35.0036 27.6146 34.803 27.9527 34.5213 28.2443C34.2396 28.5327 33.8916 28.758 33.4773 28.9205C33.063 29.0795 32.5973 29.1591 32.0803 29.1591ZM37.027 29V21.3636H38.1605V22.517H38.2401C38.3793 22.1392 38.6312 21.8326 38.9957 21.5973C39.3603 21.362 39.7713 21.2443 40.2287 21.2443C40.3149 21.2443 40.4226 21.246 40.5518 21.2493C40.6811 21.2526 40.7789 21.2576 40.8452 21.2642V22.4574C40.8054 22.4474 40.7143 22.4325 40.5717 22.4126C40.4325 22.3894 40.285 22.3778 40.1293 22.3778C39.758 22.3778 39.4266 22.4557 39.1349 22.6115C38.8466 22.764 38.6179 22.9761 38.4489 23.2479C38.2831 23.5163 38.2003 23.8229 38.2003 24.1676V29H37.027ZM46.1151 21.3636V22.358H41.9986V21.3636H46.1151ZM43.2315 29V20.3097C43.2315 19.8722 43.3343 19.5076 43.5398 19.2159C43.7453 18.9242 44.0121 18.7055 44.3402 18.5597C44.6683 18.4138 45.0147 18.3409 45.3793 18.3409C45.6676 18.3409 45.9029 18.3641 46.0852 18.4105C46.2675 18.4569 46.4034 18.5 46.4929 18.5398L46.1548 19.554C46.0952 19.5341 46.0123 19.5092 45.9062 19.4794C45.8035 19.4496 45.6676 19.4347 45.4986 19.4347C45.1108 19.4347 44.8307 19.5324 44.6584 19.728C44.4893 19.9235 44.4048 20.2102 44.4048 20.5881V29H43.2315ZM50.5472 29.1591C49.8578 29.1591 49.253 28.995 48.7326 28.6669C48.2156 28.3388 47.8112 27.8797 47.5195 27.2898C47.2312 26.6998 47.087 26.0104 47.087 25.2216C47.087 24.4261 47.2312 23.7318 47.5195 23.1385C47.8112 22.5452 48.2156 22.0845 48.7326 21.7564C49.253 21.4283 49.8578 21.2642 50.5472 21.2642C51.2366 21.2642 51.8398 21.4283 52.3569 21.7564C52.8772 22.0845 53.2816 22.5452 53.57 23.1385C53.8616 23.7318 54.0075 24.4261 54.0075 25.2216C54.0075 26.0104 53.8616 26.6998 53.57 27.2898C53.2816 27.8797 52.8772 28.3388 52.3569 28.6669C51.8398 28.995 51.2366 29.1591 50.5472 29.1591ZM50.5472 28.1051C51.0709 28.1051 51.5018 27.9709 51.8398 27.7024C52.1779 27.4339 52.4281 27.081 52.5906 26.6435C52.753 26.206 52.8342 25.732 52.8342 25.2216C52.8342 24.7112 52.753 24.2356 52.5906 23.7947C52.4281 23.3539 52.1779 22.9976 51.8398 22.7259C51.5018 22.4541 51.0709 22.3182 50.5472 22.3182C50.0236 22.3182 49.5927 22.4541 49.2546 22.7259C48.9165 22.9976 48.6663 23.3539 48.5039 23.7947C48.3415 24.2356 48.2603 24.7112 48.2603 25.2216C48.2603 25.732 48.3415 26.206 48.5039 26.6435C48.6663 27.081 48.9165 27.4339 49.2546 27.7024C49.5927 27.9709 50.0236 28.1051 50.5472 28.1051ZM55.7985 29V21.3636H56.932V22.517H57.0115C57.1507 22.1392 57.4026 21.8326 57.7672 21.5973C58.1318 21.362 58.5428 21.2443 59.0002 21.2443C59.0864 21.2443 59.1941 21.246 59.3233 21.2493C59.4526 21.2526 59.5504 21.2576 59.6167 21.2642V22.4574C59.5769 22.4474 59.4857 22.4325 59.3432 22.4126C59.204 22.3894 59.0565 22.3778 58.9007 22.3778C58.5295 22.3778 58.1981 22.4557 57.9064 22.6115C57.6181 22.764 57.3894 22.9761 57.2203 23.2479C57.0546 23.5163 56.9718 23.8229 56.9718 24.1676V29H55.7985ZM61.0075 29V21.3636H62.141V22.5568H62.2404C62.3995 22.1491 62.6564 21.8326 63.011 21.6072C63.3656 21.3786 63.7915 21.2642 64.2887 21.2642C64.7925 21.2642 65.2118 21.3786 65.5465 21.6072C65.8846 21.8326 66.1481 22.1491 66.337 22.5568H66.4165C66.6121 22.1624 66.9054 21.8492 67.2965 21.6172C67.6876 21.3819 68.1566 21.2642 68.7035 21.2642C69.3862 21.2642 69.9447 21.478 70.3789 21.9055C70.8131 22.3298 71.0302 22.991 71.0302 23.8892V29H69.8569V23.8892C69.8569 23.3258 69.7028 22.9231 69.3945 22.6811C69.0863 22.4392 68.7234 22.3182 68.3058 22.3182C67.7688 22.3182 67.3529 22.4806 67.0579 22.8054C66.7629 23.1269 66.6154 23.5346 66.6154 24.0284V29H65.4222V23.7699C65.4222 23.3357 65.2814 22.986 64.9996 22.7209C64.7179 22.4524 64.355 22.3182 63.9109 22.3182C63.6059 22.3182 63.3209 22.3994 63.0558 22.5618C62.7939 22.7242 62.5818 22.9496 62.4194 23.2379C62.2603 23.523 62.1808 23.8527 62.1808 24.2273V29H61.0075ZM75.4226 29.179C74.9387 29.179 74.4995 29.0878 74.1051 28.9055C73.7107 28.7199 73.3975 28.4531 73.1655 28.1051C72.9335 27.7538 72.8175 27.3295 72.8175 26.8324C72.8175 26.3949 72.9036 26.0402 73.076 25.7685C73.2483 25.4934 73.4787 25.2779 73.767 25.1222C74.0554 24.9664 74.3736 24.8504 74.7216 24.7741C75.0729 24.6946 75.4259 24.6316 75.7805 24.5852C76.2446 24.5256 76.6207 24.4808 76.9091 24.451C77.2008 24.4179 77.4129 24.3632 77.5455 24.2869C77.6813 24.2107 77.7493 24.0781 77.7493 23.8892V23.8494C77.7493 23.3589 77.6151 22.9777 77.3466 22.706C77.0814 22.4342 76.6787 22.2983 76.1385 22.2983C75.5784 22.2983 75.1392 22.4209 74.821 22.6662C74.5028 22.9115 74.2791 23.1733 74.1499 23.4517L73.0362 23.054C73.2351 22.59 73.5002 22.2287 73.8317 21.9702C74.1664 21.7083 74.531 21.526 74.9254 21.4233C75.3232 21.3172 75.7143 21.2642 76.0987 21.2642C76.344 21.2642 76.6257 21.294 76.9439 21.3537C77.2654 21.41 77.5753 21.5277 77.8736 21.7067C78.1752 21.8857 78.4254 22.1558 78.6243 22.517C78.8232 22.8783 78.9226 23.3622 78.9226 23.9688V29H77.7493V27.9659H77.6896C77.6101 28.1316 77.4775 28.3089 77.2919 28.4979C77.1063 28.6868 76.8594 28.8475 76.5511 28.9801C76.2429 29.1127 75.8667 29.179 75.4226 29.179ZM75.6016 28.125C76.0656 28.125 76.4567 28.0339 76.7749 27.8516C77.0964 27.6693 77.3383 27.4339 77.5007 27.1456C77.6664 26.8572 77.7493 26.554 77.7493 26.2358V25.1619C77.6996 25.2216 77.5902 25.2763 77.4212 25.326C77.2554 25.3724 77.0632 25.4138 76.8445 25.4503C76.629 25.4834 76.4186 25.5133 76.2131 25.5398C76.0109 25.563 75.8468 25.5829 75.7209 25.5994C75.416 25.6392 75.1309 25.7038 74.8658 25.7933C74.6039 25.8795 74.3918 26.0104 74.2294 26.1861C74.0703 26.3584 73.9908 26.5937 73.9908 26.892C73.9908 27.2997 74.1416 27.608 74.4432 27.8168C74.7481 28.0223 75.1342 28.125 75.6016 28.125ZM82.2374 24.4062V29H81.0641V21.3636H82.1976V22.5568H82.2971C82.476 22.169 82.7478 21.8575 83.1124 21.6222C83.477 21.3835 83.9476 21.2642 84.5243 21.2642C85.0414 21.2642 85.4938 21.3703 85.8816 21.5824C86.2694 21.7912 86.571 22.1094 86.7864 22.5369C87.0018 22.9612 87.1096 23.4981 87.1096 24.1477V29H85.9363V24.2273C85.9363 23.6274 85.7805 23.16 85.4689 22.8253C85.1574 22.4872 84.7298 22.3182 84.1863 22.3182C83.8117 22.3182 83.477 22.3994 83.182 22.5618C82.8903 22.7242 82.66 22.9612 82.4909 23.2727C82.3219 23.5843 82.2374 23.9621 82.2374 24.4062ZM92.3558 29.1591C91.6399 29.1591 91.0234 28.9901 90.5064 28.652C89.9893 28.3139 89.5916 27.8482 89.3132 27.255C89.0348 26.6617 88.8956 25.9839 88.8956 25.2216C88.8956 24.446 89.0381 23.7616 89.3232 23.1683C89.6115 22.5717 90.0125 22.1061 90.5263 21.7713C91.0433 21.4332 91.6465 21.2642 92.3359 21.2642C92.8729 21.2642 93.3568 21.3636 93.7876 21.5625C94.2185 21.7614 94.5715 22.0398 94.8466 22.3977C95.1217 22.7557 95.2924 23.1733 95.3587 23.6506H94.1854C94.0959 23.3026 93.897 22.9943 93.5888 22.7259C93.2839 22.4541 92.8729 22.3182 92.3558 22.3182C91.8984 22.3182 91.4974 22.4375 91.1527 22.6761C90.8113 22.9115 90.5445 23.2446 90.3523 23.6754C90.1634 24.103 90.0689 24.6051 90.0689 25.1818C90.0689 25.7718 90.1617 26.2855 90.3473 26.723C90.5362 27.1605 90.8014 27.5002 91.1428 27.7422C91.4875 27.9841 91.8918 28.1051 92.3558 28.1051C92.6607 28.1051 92.9375 28.0521 93.1861 27.946C93.4347 27.84 93.6451 27.6875 93.8175 27.4886C93.9898 27.2898 94.1125 27.0511 94.1854 26.7727H95.3587C95.2924 27.2235 95.1283 27.6295 94.8665 27.9908C94.608 28.3487 94.2649 28.6338 93.8374 28.8459C93.4131 29.0547 92.9193 29.1591 92.3558 29.1591ZM100.276 29.1591C99.5398 29.1591 98.9051 28.9967 98.3714 28.6719C97.8411 28.3438 97.4318 27.8864 97.1435 27.2997C96.8584 26.7098 96.7159 26.0237 96.7159 25.2415C96.7159 24.4593 96.8584 23.7699 97.1435 23.1733C97.4318 22.5734 97.8329 22.1061 98.3466 21.7713C98.8636 21.4332 99.4669 21.2642 100.156 21.2642C100.554 21.2642 100.947 21.3305 101.335 21.4631C101.722 21.5956 102.075 21.8111 102.393 22.1094C102.712 22.4044 102.965 22.7955 103.154 23.2827C103.343 23.7699 103.438 24.3698 103.438 25.0824V25.5795H97.5511V24.5653H102.244C102.244 24.1345 102.158 23.75 101.986 23.4119C101.817 23.0739 101.575 22.8071 101.26 22.6115C100.948 22.416 100.58 22.3182 100.156 22.3182C99.6889 22.3182 99.2846 22.4342 98.9432 22.6662C98.6051 22.8949 98.3449 23.1932 98.1626 23.5611C97.9804 23.929 97.8892 24.3234 97.8892 24.7443V25.4205C97.8892 25.9972 97.9886 26.486 98.1875 26.8871C98.3897 27.2848 98.6697 27.5881 99.0277 27.7969C99.3857 28.0024 99.8016 28.1051 100.276 28.1051C100.584 28.1051 100.862 28.062 101.111 27.9759C101.363 27.8864 101.58 27.7538 101.762 27.5781C101.944 27.3991 102.085 27.1771 102.185 26.9119L103.318 27.2301C103.199 27.6146 102.998 27.9527 102.717 28.2443C102.435 28.5327 102.087 28.758 101.673 28.9205C101.258 29.0795 100.793 29.1591 100.276 29.1591ZM110.631 23.0739L109.577 23.3722C109.511 23.1965 109.413 23.0258 109.284 22.8601C109.158 22.6911 108.986 22.5518 108.767 22.4425C108.548 22.3331 108.268 22.2784 107.927 22.2784C107.46 22.2784 107.07 22.3861 106.759 22.6016C106.45 22.8137 106.296 23.0838 106.296 23.4119C106.296 23.7036 106.402 23.9339 106.614 24.103C106.826 24.272 107.158 24.4129 107.609 24.5256L108.742 24.804C109.425 24.9697 109.934 25.2232 110.268 25.5646C110.603 25.9027 110.771 26.3385 110.771 26.8722C110.771 27.3097 110.645 27.7008 110.393 28.0455C110.144 28.3902 109.796 28.6619 109.349 28.8608C108.901 29.0597 108.381 29.1591 107.788 29.1591C107.009 29.1591 106.364 28.9901 105.854 28.652C105.343 28.3139 105.02 27.8201 104.884 27.1705L105.998 26.892C106.104 27.303 106.304 27.6113 106.599 27.8168C106.898 28.0223 107.287 28.125 107.768 28.125C108.315 28.125 108.749 28.009 109.07 27.777C109.395 27.5417 109.558 27.2599 109.558 26.9318C109.558 26.6667 109.465 26.4446 109.279 26.2656C109.094 26.0833 108.808 25.9474 108.424 25.858L107.151 25.5597C106.452 25.3939 105.938 25.1371 105.61 24.7891C105.285 24.4377 105.123 23.9986 105.123 23.4716C105.123 23.0407 105.244 22.6596 105.486 22.3281C105.731 21.9967 106.064 21.7365 106.485 21.5476C106.909 21.3587 107.39 21.2642 107.927 21.2642C108.683 21.2642 109.276 21.4299 109.707 21.7614C110.141 22.0928 110.449 22.5303 110.631 23.0739Z" fill="#EDECF4"/>
<rect x="135" y="15.5" width="89.3333" height="17" fill="#1F1F37"/>
<path d="M25.9562 79.0625H40.0437V76.4375H25.9562V79.0625ZM25.9562 71.625H40.0437V69H25.9562V71.625ZM19 86.5V51.5H37.4187L47 61.0813V86.5H19ZM36.1062 62.2625H44.375L36.1062 54.125V62.2625Z" fill="#ABABCE"/>
<path d="M65.1136 53.3636L67.9261 62.2045H68.0341L70.8523 53.3636H73.5795L69.5682 65H66.3977L62.3807 53.3636H65.1136ZM74.9801 53.3636H78.0142L81.2188 61.1818H81.3551L84.5597 53.3636H87.5938V65H85.2074V57.4261H85.1108L82.0994 64.9432H80.4744L77.4631 57.3977H77.3665V65H74.9801V53.3636ZM91.6264 65H88.9901L93.0071 53.3636H96.1776L100.189 65H97.5526L94.6378 56.0227H94.5469L91.6264 65ZM91.4616 60.4261H97.6889V62.3466H91.4616V60.4261ZM107.298 65H104.662L108.679 53.3636H111.849L115.861 65H113.224L110.31 56.0227H110.219L107.298 65ZM107.134 60.4261H113.361V62.3466H107.134V60.4261ZM120.753 65.1705C119.87 65.1705 119.107 64.983 118.463 64.608C117.823 64.2292 117.329 63.7027 116.98 63.0284C116.632 62.3504 116.457 61.5644 116.457 60.6705C116.457 59.7689 116.632 58.9811 116.98 58.3068C117.329 57.6288 117.823 57.1023 118.463 56.7273C119.107 56.3485 119.87 56.1591 120.753 56.1591C121.635 56.1591 122.397 56.3485 123.037 56.7273C123.681 57.1023 124.177 57.6288 124.526 58.3068C124.874 58.9811 125.048 59.7689 125.048 60.6705C125.048 61.5644 124.874 62.3504 124.526 63.0284C124.177 63.7027 123.681 64.2292 123.037 64.608C122.397 64.983 121.635 65.1705 120.753 65.1705ZM120.764 63.2955C121.166 63.2955 121.501 63.1818 121.77 62.9545C122.039 62.7235 122.241 62.4091 122.378 62.0114C122.518 61.6136 122.588 61.161 122.588 60.6534C122.588 60.1458 122.518 59.6932 122.378 59.2955C122.241 58.8977 122.039 58.5833 121.77 58.3523C121.501 58.1212 121.166 58.0057 120.764 58.0057C120.359 58.0057 120.018 58.1212 119.741 58.3523C119.469 58.5833 119.262 58.8977 119.122 59.2955C118.986 59.6932 118.918 60.1458 118.918 60.6534C118.918 61.161 118.986 61.6136 119.122 62.0114C119.262 62.4091 119.469 62.7235 119.741 62.9545C120.018 63.1818 120.359 63.2955 120.764 63.2955ZM132.219 61.2841V56.2727H134.639V65H132.315V63.4148H132.224C132.027 63.9261 131.7 64.3371 131.241 64.6477C130.787 64.9583 130.232 65.1136 129.577 65.1136C128.993 65.1136 128.48 64.9811 128.037 64.7159C127.594 64.4508 127.247 64.0739 126.997 63.5852C126.751 63.0966 126.626 62.5114 126.622 61.8295V56.2727H129.043V61.3977C129.046 61.9129 129.185 62.3201 129.457 62.6193C129.73 62.9186 130.096 63.0682 130.554 63.0682C130.846 63.0682 131.118 63.0019 131.372 62.8693C131.626 62.733 131.83 62.5322 131.986 62.267C132.145 62.0019 132.223 61.6742 132.219 61.2841ZM131.787 55.2273L130.645 53.8409L129.503 55.2273H127.44V55.1477L129.741 52.6477H131.543L133.849 55.1477V55.2273H131.787ZM141.217 56.2727V58.0909H135.962V56.2727H141.217ZM137.155 54.1818H139.575V62.3182C139.575 62.5417 139.609 62.7159 139.678 62.8409C139.746 62.9621 139.84 63.0473 139.962 63.0966C140.087 63.1458 140.231 63.1705 140.393 63.1705C140.507 63.1705 140.621 63.161 140.734 63.142C140.848 63.1193 140.935 63.1023 140.996 63.0909L141.376 64.892C141.255 64.9299 141.085 64.9735 140.865 65.0227C140.645 65.0758 140.378 65.108 140.064 65.1193C139.481 65.142 138.969 65.0644 138.53 64.8864C138.094 64.7083 137.755 64.4318 137.513 64.0568C137.27 63.6818 137.151 63.2083 137.155 62.6364V54.1818ZM146.474 65V63.2273L150.616 59.392C150.969 59.0511 151.264 58.7443 151.503 58.4716C151.745 58.1989 151.929 57.9318 152.054 57.6705C152.179 57.4053 152.241 57.1193 152.241 56.8125C152.241 56.4716 152.164 56.178 152.009 55.9318C151.853 55.6818 151.641 55.4905 151.372 55.358C151.103 55.2216 150.798 55.1534 150.457 55.1534C150.101 55.1534 149.791 55.2254 149.526 55.3693C149.26 55.5133 149.056 55.7197 148.912 55.9886C148.768 56.2576 148.696 56.5777 148.696 56.9489H146.361C146.361 56.1875 146.533 55.5265 146.878 54.9659C147.223 54.4053 147.705 53.9716 148.327 53.6648C148.948 53.358 149.664 53.2045 150.474 53.2045C151.308 53.2045 152.033 53.3523 152.651 53.6477C153.272 53.9394 153.755 54.3447 154.099 54.8636C154.444 55.3826 154.616 55.9773 154.616 56.6477C154.616 57.0871 154.529 57.5208 154.355 57.9489C154.185 58.3769 153.88 58.8523 153.44 59.375C153.001 59.8939 152.382 60.517 151.582 61.2443L149.884 62.9091V62.9886H154.77V65H146.474ZM161.115 65.2557C160.138 65.2519 159.297 65.0114 158.592 64.5341C157.892 64.0568 157.352 63.3655 156.973 62.4602C156.598 61.5549 156.412 60.4659 156.416 59.1932C156.416 57.9242 156.604 56.8428 156.979 55.9489C157.357 55.0549 157.897 54.375 158.598 53.9091C159.303 53.4394 160.142 53.2045 161.115 53.2045C162.089 53.2045 162.926 53.4394 163.626 53.9091C164.331 54.3788 164.873 55.0606 165.251 55.9545C165.63 56.8447 165.818 57.9242 165.814 59.1932C165.814 60.4697 165.625 61.5606 165.246 62.4659C164.871 63.3712 164.333 64.0625 163.632 64.5398C162.931 65.017 162.092 65.2557 161.115 65.2557ZM161.115 63.2159C161.782 63.2159 162.314 62.8807 162.712 62.2102C163.109 61.5398 163.306 60.5341 163.303 59.1932C163.303 58.3106 163.212 57.5758 163.03 56.9886C162.852 56.4015 162.598 55.9602 162.268 55.6648C161.943 55.3693 161.558 55.2216 161.115 55.2216C160.452 55.2216 159.922 55.553 159.524 56.2159C159.126 56.8788 158.926 57.8712 158.922 59.1932C158.922 60.0871 159.011 60.8333 159.189 61.4318C159.371 62.0265 159.626 62.4735 159.956 62.7727C160.286 63.0682 160.672 63.2159 161.115 63.2159ZM167.568 65V63.2273L171.71 59.392C172.063 59.0511 172.358 58.7443 172.597 58.4716C172.839 58.1989 173.023 57.9318 173.148 57.6705C173.273 57.4053 173.335 57.1193 173.335 56.8125C173.335 56.4716 173.258 56.178 173.102 55.9318C172.947 55.6818 172.735 55.4905 172.466 55.358C172.197 55.2216 171.892 55.1534 171.551 55.1534C171.195 55.1534 170.884 55.2254 170.619 55.3693C170.354 55.5133 170.15 55.7197 170.006 55.9886C169.862 56.2576 169.79 56.5777 169.79 56.9489H167.455C167.455 56.1875 167.627 55.5265 167.972 54.9659C168.316 54.4053 168.799 53.9716 169.42 53.6648C170.042 53.358 170.758 53.2045 171.568 53.2045C172.402 53.2045 173.127 53.3523 173.744 53.6477C174.366 53.9394 174.848 54.3447 175.193 54.8636C175.538 55.3826 175.71 55.9773 175.71 56.6477C175.71 57.0871 175.623 57.5208 175.449 57.9489C175.278 58.3769 174.973 58.8523 174.534 59.375C174.095 59.8939 173.475 60.517 172.676 61.2443L170.977 62.9091V62.9886H175.864V65H167.568ZM177.646 65V63.2273L181.788 59.392C182.141 59.0511 182.436 58.7443 182.675 58.4716C182.917 58.1989 183.101 57.9318 183.226 57.6705C183.351 57.4053 183.413 57.1193 183.413 56.8125C183.413 56.4716 183.336 56.178 183.18 55.9318C183.025 55.6818 182.813 55.4905 182.544 55.358C182.275 55.2216 181.97 55.1534 181.629 55.1534C181.273 55.1534 180.963 55.2254 180.697 55.3693C180.432 55.5133 180.228 55.7197 180.084 55.9886C179.94 56.2576 179.868 56.5777 179.868 56.9489H177.533C177.533 56.1875 177.705 55.5265 178.05 54.9659C178.394 54.4053 178.877 53.9716 179.499 53.6648C180.12 53.358 180.836 53.2045 181.646 53.2045C182.48 53.2045 183.205 53.3523 183.822 53.6477C184.444 53.9394 184.927 54.3447 185.271 54.8636C185.616 55.3826 185.788 55.9773 185.788 56.6477C185.788 57.0871 185.701 57.5208 185.527 57.9489C185.357 58.3769 185.052 58.8523 184.612 59.375C184.173 59.8939 183.554 60.517 182.754 61.2443L181.055 62.9091V62.9886H185.942V65H177.646Z" fill="#EDECF4"/>
<path d="M63.6506 74.8182L66.6733 83.3892H66.7926L69.8153 74.8182H71.108L67.3693 85H66.0966L62.358 74.8182H63.6506ZM72.6939 74.8182H74.1655L77.6257 83.2699H77.745L81.2053 74.8182H82.6768V85H81.5234V77.2642H81.424L78.2422 85H77.1286L73.9467 77.2642H73.8473V85H72.6939V74.8182ZM85.149 85V74.8182H88.5893C89.3881 74.8182 90.041 74.9624 90.5481 75.2507C91.0585 75.5357 91.4364 75.9219 91.6816 76.4091C91.9269 76.8963 92.0495 77.4399 92.0495 78.0398C92.0495 78.6397 91.9269 79.1849 91.6816 79.6754C91.4397 80.166 91.0652 80.5571 90.5581 80.8487C90.051 81.1371 89.4013 81.2812 88.6092 81.2812H86.1433V80.1875H88.5694C89.1163 80.1875 89.5555 80.093 89.8869 79.9041C90.2183 79.7152 90.4586 79.46 90.6078 79.1385C90.7602 78.8137 90.8365 78.4474 90.8365 78.0398C90.8365 77.6321 90.7602 77.2675 90.6078 76.946C90.4586 76.6245 90.2167 76.3726 89.8819 76.1903C89.5472 76.0047 89.103 75.9119 88.5495 75.9119H86.3819V85H85.149ZM99.1465 85V86.0938H92.7828V85H99.1465ZM102.865 85.1392C102.116 85.1392 101.478 84.9354 100.951 84.5277C100.424 84.1167 100.021 83.5218 99.7431 82.7429C99.4647 81.9607 99.3255 81.0161 99.3255 79.9091C99.3255 78.8087 99.4647 77.8691 99.7431 77.0902C100.025 76.308 100.429 75.7114 100.956 75.3004C101.486 74.8861 102.123 74.679 102.865 74.679C103.608 74.679 104.242 74.8861 104.769 75.3004C105.3 75.7114 105.704 76.308 105.982 77.0902C106.264 77.8691 106.405 78.8087 106.405 79.9091C106.405 81.0161 106.266 81.9607 105.987 82.7429C105.709 83.5218 105.306 84.1167 104.779 84.5277C104.252 84.9354 103.614 85.1392 102.865 85.1392ZM102.865 84.0455C103.608 84.0455 104.184 83.6875 104.595 82.9716C105.006 82.2557 105.212 81.2348 105.212 79.9091C105.212 79.0275 105.117 78.2768 104.928 77.657C104.743 77.0372 104.474 76.5649 104.123 76.2401C103.775 75.9152 103.356 75.7528 102.865 75.7528C102.129 75.7528 101.554 76.1158 101.14 76.8416C100.726 77.5642 100.519 78.5866 100.519 79.9091C100.519 80.7907 100.611 81.5398 100.797 82.1562C100.983 82.7727 101.249 83.2417 101.597 83.5632C101.949 83.8847 102.371 84.0455 102.865 84.0455ZM111.556 85.1392C110.873 85.1392 110.27 85.0182 109.746 84.7763C109.226 84.531 108.82 84.1946 108.528 83.767C108.236 83.3362 108.092 82.8456 108.095 82.2955C108.092 81.8646 108.177 81.4669 108.349 81.1023C108.521 80.7344 108.757 80.4278 109.055 80.1825C109.356 79.9339 109.693 79.7765 110.064 79.7102V79.6506C109.577 79.5246 109.189 79.2512 108.901 78.8303C108.612 78.406 108.47 77.9238 108.473 77.3835C108.47 76.8665 108.601 76.4041 108.866 75.9964C109.131 75.5888 109.496 75.2673 109.96 75.032C110.427 74.7966 110.959 74.679 111.556 74.679C112.146 74.679 112.673 74.7966 113.137 75.032C113.601 75.2673 113.965 75.5888 114.23 75.9964C114.499 76.4041 114.635 76.8665 114.638 77.3835C114.635 77.9238 114.487 78.406 114.195 78.8303C113.907 79.2512 113.524 79.5246 113.047 79.6506V79.7102C113.415 79.7765 113.746 79.9339 114.041 80.1825C114.336 80.4278 114.572 80.7344 114.747 81.1023C114.923 81.4669 115.012 81.8646 115.016 82.2955C115.012 82.8456 114.863 83.3362 114.568 83.767C114.277 84.1946 113.871 84.531 113.35 84.7763C112.833 85.0182 112.235 85.1392 111.556 85.1392ZM111.556 84.0455C112.016 84.0455 112.414 83.9709 112.749 83.8217C113.084 83.6726 113.342 83.4621 113.524 83.1903C113.707 82.9186 113.799 82.6004 113.803 82.2358C113.799 81.8513 113.7 81.5116 113.504 81.2166C113.309 80.9216 113.042 80.6896 112.704 80.5206C112.369 80.3516 111.986 80.267 111.556 80.267C111.121 80.267 110.734 80.3516 110.392 80.5206C110.054 80.6896 109.787 80.9216 109.592 81.2166C109.4 81.5116 109.305 81.8513 109.308 82.2358C109.305 82.6004 109.393 82.9186 109.572 83.1903C109.754 83.4621 110.014 83.6726 110.352 83.8217C110.691 83.9709 111.092 84.0455 111.556 84.0455ZM111.556 79.2131C111.92 79.2131 112.243 79.1402 112.525 78.9943C112.81 78.8485 113.034 78.6446 113.196 78.3828C113.359 78.121 113.441 77.8144 113.445 77.4631C113.441 77.1184 113.36 76.8184 113.201 76.5632C113.042 76.3047 112.822 76.1058 112.54 75.9666C112.258 75.8241 111.93 75.7528 111.556 75.7528C111.174 75.7528 110.841 75.8241 110.556 75.9666C110.271 76.1058 110.051 76.3047 109.895 76.5632C109.739 76.8184 109.663 77.1184 109.666 77.4631C109.663 77.8144 109.741 78.121 109.9 78.3828C110.062 78.6446 110.286 78.8485 110.571 78.9943C110.856 79.1402 111.184 79.2131 111.556 79.2131ZM122.211 85V86.0938H115.847V85H122.211ZM123.251 85V84.1051L126.612 80.4261C127.006 79.9953 127.331 79.6207 127.586 79.3026C127.842 78.9811 128.031 78.6795 128.153 78.3977C128.279 78.1127 128.342 77.8144 128.342 77.5028C128.342 77.1449 128.256 76.835 128.084 76.5732C127.915 76.3113 127.683 76.1091 127.388 75.9666C127.093 75.8241 126.761 75.7528 126.393 75.7528C126.002 75.7528 125.661 75.834 125.369 75.9964C125.081 76.1555 124.857 76.3793 124.698 76.6676C124.542 76.956 124.464 77.294 124.464 77.6818H123.291C123.291 77.0852 123.429 76.5616 123.704 76.1108C123.979 75.66 124.353 75.3087 124.827 75.0568C125.305 74.8049 125.84 74.679 126.433 74.679C127.03 74.679 127.558 74.8049 128.019 75.0568C128.48 75.3087 128.841 75.6484 129.103 76.076C129.365 76.5036 129.496 76.9792 129.496 77.5028C129.496 77.8774 129.428 78.2436 129.292 78.6016C129.159 78.9562 128.927 79.3523 128.596 79.7898C128.268 80.224 127.812 80.7543 127.229 81.3807L124.942 83.8267V83.9062H129.675V85H123.251ZM131.728 85V84.1051L135.089 80.4261C135.483 79.9953 135.808 79.6207 136.063 79.3026C136.318 78.9811 136.507 78.6795 136.63 78.3977C136.756 78.1127 136.819 77.8144 136.819 77.5028C136.819 77.1449 136.733 76.835 136.56 76.5732C136.391 76.3113 136.159 76.1091 135.864 75.9666C135.569 75.8241 135.238 75.7528 134.87 75.7528C134.479 75.7528 134.137 75.834 133.846 75.9964C133.557 76.1555 133.334 76.3793 133.175 76.6676C133.019 76.956 132.941 77.294 132.941 77.6818H131.768C131.768 77.0852 131.905 76.5616 132.18 76.1108C132.455 75.66 132.83 75.3087 133.304 75.0568C133.781 74.8049 134.316 74.679 134.91 74.679C135.506 74.679 136.035 74.8049 136.496 75.0568C136.956 75.3087 137.318 75.6484 137.579 76.076C137.841 76.5036 137.972 76.9792 137.972 77.5028C137.972 77.8774 137.904 78.2436 137.768 78.6016C137.636 78.9562 137.404 79.3523 137.072 79.7898C136.744 80.224 136.288 80.7543 135.705 81.3807L133.418 83.8267V83.9062H138.151V85H131.728ZM141.079 85.0795C140.834 85.0795 140.624 84.9917 140.448 84.8161C140.272 84.6404 140.184 84.4299 140.184 84.1847C140.184 83.9394 140.272 83.7289 140.448 83.5533C140.624 83.3776 140.834 83.2898 141.079 83.2898C141.325 83.2898 141.535 83.3776 141.711 83.5533C141.886 83.7289 141.974 83.9394 141.974 84.1847C141.974 84.3471 141.933 84.4962 141.85 84.6321C141.77 84.768 141.663 84.8774 141.527 84.9602C141.394 85.0398 141.245 85.0795 141.079 85.0795ZM144.08 87.8636V77.3636H145.213V78.5767H145.352C145.439 78.4441 145.558 78.2751 145.71 78.0696C145.866 77.8608 146.088 77.6752 146.377 77.5128C146.668 77.3471 147.063 77.2642 147.56 77.2642C148.203 77.2642 148.77 77.425 149.26 77.7464C149.751 78.0679 150.133 78.5237 150.409 79.1136C150.684 79.7036 150.821 80.3996 150.821 81.2017C150.821 82.0104 150.684 82.7114 150.409 83.3047C150.133 83.8946 149.752 84.352 149.265 84.6768C148.778 84.9983 148.216 85.1591 147.58 85.1591C147.089 85.1591 146.696 85.0779 146.401 84.9155C146.106 84.7498 145.879 84.5625 145.72 84.3537C145.561 84.1416 145.439 83.9659 145.352 83.8267H145.253V87.8636H144.08ZM145.233 81.1818C145.233 81.7585 145.318 82.2673 145.487 82.7081C145.656 83.1456 145.903 83.4886 146.227 83.7372C146.552 83.9825 146.95 84.1051 147.421 84.1051C147.911 84.1051 148.32 83.9759 148.649 83.7173C148.98 83.4555 149.229 83.1042 149.394 82.6634C149.563 82.2192 149.648 81.7254 149.648 81.1818C149.648 80.6449 149.565 80.161 149.399 79.7301C149.237 79.2959 148.99 78.9529 148.659 78.701C148.33 78.4458 147.918 78.3182 147.421 78.3182C146.943 78.3182 146.542 78.4392 146.218 78.6811C145.893 78.9197 145.647 79.2545 145.482 79.6854C145.316 80.1129 145.233 80.6117 145.233 81.1818ZM155.494 85.1591C154.858 85.1591 154.296 84.9983 153.809 84.6768C153.322 84.352 152.941 83.8946 152.666 83.3047C152.391 82.7114 152.253 82.0104 152.253 81.2017C152.253 80.3996 152.391 79.7036 152.666 79.1136C152.941 78.5237 153.324 78.0679 153.814 77.7464C154.305 77.425 154.871 77.2642 155.514 77.2642C156.012 77.2642 156.404 77.3471 156.693 77.5128C156.984 77.6752 157.206 77.8608 157.359 78.0696C157.515 78.2751 157.636 78.4441 157.722 78.5767H157.821V74.8182H158.994V85H157.861V83.8267H157.722C157.636 83.9659 157.513 84.1416 157.354 84.3537C157.195 84.5625 156.968 84.7498 156.673 84.9155C156.378 85.0779 155.985 85.1591 155.494 85.1591ZM155.654 84.1051C156.124 84.1051 156.522 83.9825 156.847 83.7372C157.172 83.4886 157.419 83.1456 157.588 82.7081C157.757 82.2673 157.841 81.7585 157.841 81.1818C157.841 80.6117 157.758 80.1129 157.593 79.6854C157.427 79.2545 157.182 78.9197 156.857 78.6811C156.532 78.4392 156.131 78.3182 155.654 78.3182C155.156 78.3182 154.742 78.4458 154.411 78.701C154.083 78.9529 153.836 79.2959 153.67 79.7301C153.508 80.161 153.426 80.6449 153.426 81.1818C153.426 81.7254 153.509 82.2192 153.675 82.6634C153.844 83.1042 154.093 83.4555 154.421 83.7173C154.752 83.9759 155.163 84.1051 155.654 84.1051ZM164.707 77.3636V78.358H160.59V77.3636H164.707ZM161.823 85V76.3097C161.823 75.8722 161.926 75.5076 162.132 75.2159C162.337 74.9242 162.604 74.7055 162.932 74.5597C163.26 74.4138 163.606 74.3409 163.971 74.3409C164.259 74.3409 164.495 74.3641 164.677 74.4105C164.859 74.4569 164.995 74.5 165.085 74.5398L164.747 75.554C164.687 75.5341 164.604 75.5092 164.498 75.4794C164.395 75.4496 164.259 75.4347 164.09 75.4347C163.703 75.4347 163.423 75.5324 163.25 75.728C163.081 75.9235 162.997 76.2102 162.997 76.5881V85H161.823Z" fill="#ABABCE"/>
</svg>
