<svg width="24" height="24" viewBox="0 0 24 24" fill="none" xmlns="http://www.w3.org/2000/svg">
<path d="M4.5 7.03291C4.5 6.85133 4.59845 6.68401 4.75718 6.59583L4.51436 6.15875L4.75718 6.59583L11.7572 2.70694C11.9082 2.62305 12.0918 2.62305 12.2428 2.70694L19.2428 6.59583C19.4016 6.68401 19.5 6.85132 19.5 7.03291V11.6716C19.5 15.1217 17.6295 18.3006 14.6136 19.9761L12.2428 21.2932C12.0918 21.3771 11.9082 21.3771 11.7572 21.2932L9.38639 19.9761C6.37047 18.3006 4.5 15.1217 4.5 11.6716V7.03291Z" fill="#3D3C34" stroke="#F2ED17"/>
<path d="M13.6729 13.2951H10.3289L9.71295 15.0001H8.65695L11.4289 7.37706H12.5839L15.3449 15.0001H14.2889L13.6729 13.2951ZM13.3869 12.4811L12.0009 8.60906L10.6149 12.4811H13.3869Z" fill="#F2ED17"/>
</svg>
