<svg width="173" height="60" viewBox="0 0 173 60" fill="none" xmlns="http://www.w3.org/2000/svg">
<path fill-rule="evenodd" clip-rule="evenodd" d="M55.6568 34.402C53.2266 48.22 40.0877 57.4588 26.3165 55.0203C12.5454 52.5816 3.33829 39.3978 5.7685 25.5798C8.1987 11.7616 21.3178 2.54291 35.1087 4.96158C48.8798 7.40008 58.087 20.5839 55.6568 34.402ZM35.9978 0.461257C19.7372 -2.4134 4.22739 8.47064 1.36252 24.7868C-1.50235 41.103 9.3644 56.6657 25.625 59.5404C41.8856 62.4151 57.3954 51.5308 60.2603 35.2149C63.1252 18.8987 52.2584 3.33591 35.9978 0.461257Z" fill="#EDECF4"/>
<path fill-rule="evenodd" clip-rule="evenodd" d="M34.5749 20.3261L36.0172 19.4142C36.4716 19.1168 36.274 18.4031 35.7208 18.4031H29.9713C29.5367 18.4031 29.181 18.0264 29.1415 17.6101L28.7068 11.7815C28.6673 11.2462 27.956 11.0876 27.6794 11.5436L24.044 17.7092C23.8267 18.0859 23.313 18.4031 22.8783 18.4031H16.5559C16.0619 18.4031 15.8248 18.9978 16.1607 19.3349L20.0135 23.2008C20.3098 23.4982 20.3888 24.0533 20.1715 24.43L16.9708 30.2586C16.6942 30.7542 17.2671 31.2895 17.7413 30.9921L22.4239 28.0183C22.8388 27.7606 23.3525 28.1174 23.2537 28.5932L20.132 43.363C20.053 43.7001 20.3098 44.0173 20.6655 44.0173H27.4028C28.2327 44.0173 29.0625 43.3432 29.2205 42.5304L30.6431 35.8493H39.4155C40.2453 35.8493 41.3123 35.2942 41.7865 34.6003L44.0981 31.1903C44.355 30.8335 44.0783 30.3379 43.6437 30.3379H32.5003C32.1447 30.3379 31.8878 30.0207 31.9669 29.6836L32.4608 27.3244C32.5201 27.0667 32.7374 26.8883 32.9943 26.8883H45.6194C46.4493 26.8883 47.5162 26.3332 47.9706 25.6393L50.2823 22.2294C50.5391 21.8725 50.2625 21.3769 49.8278 21.3769H34.812C34.318 21.3372 34.1205 20.6235 34.5749 20.3261Z" fill="#EDECF4"/>
<path fill-rule="evenodd" clip-rule="evenodd" d="M76.3026 14.3189H94.2031L93.2942 18.6408H82.3682L81.7952 21.3569H91.8519L90.943 25.6788H80.8864L79.5428 32.0625H72.5684L76.3026 14.3189Z" fill="#EDECF4"/>
<path fill-rule="evenodd" clip-rule="evenodd" d="M103.944 28.1966C106.789 28.1966 108.903 26.789 109.654 23.1808C110.425 19.5726 108.903 18.165 106.058 18.165C103.213 18.165 101.099 19.5726 100.348 23.1808C99.5975 26.7692 101.099 28.1966 103.944 28.1966ZM107.007 13.6845C111.235 13.6845 119.019 13.9819 117.083 23.161C115.147 32.3401 107.224 32.6374 102.996 32.6374C98.7676 32.6374 90.9829 32.3401 92.9192 23.1412C94.8754 13.9819 102.778 13.6845 107.007 13.6845ZM129.392 28.1966C132.237 28.1966 134.351 26.789 135.102 23.1808C135.873 19.5726 134.351 18.165 131.506 18.165C128.661 18.165 126.547 19.5726 125.796 23.1808C125.025 26.7692 126.547 28.1966 129.392 28.1966ZM132.455 13.6845C136.682 13.6845 144.467 13.9819 142.531 23.161C140.595 32.3401 132.672 32.6374 128.444 32.6374C124.216 32.6374 116.431 32.3401 118.367 23.1412C120.323 13.9819 128.226 13.6845 132.455 13.6845Z" fill="#EDECF4"/>
<path fill-rule="evenodd" clip-rule="evenodd" d="M150.336 18.7796H143.875L144.823 14.3189H164.719L163.771 18.7796H157.31L154.505 32.0427H147.53L150.336 18.7796Z" fill="#EDECF4"/>
<path fill-rule="evenodd" clip-rule="evenodd" d="M85.8074 49.3104H83.8513L86.2223 38.1688L78.1809 49.3104H76.541L73.2217 38.0497L70.831 49.3104H68.875L71.9177 34.9572H74.4072L77.9043 46.6737L86.3606 34.9572H88.8303L85.8074 49.3104Z" fill="#EDECF4"/>
<path fill-rule="evenodd" clip-rule="evenodd" d="M99.5182 49.3104H87.8809L90.9235 34.9572H102.403L102.008 36.7811H92.4647L91.5756 40.964H100.763L100.368 42.7881H91.1804L90.1925 47.4667H99.8935L99.5182 49.3104Z" fill="#EDECF4"/>
<path fill-rule="evenodd" clip-rule="evenodd" d="M104.538 41.4002H110.267C112.105 41.4002 113.211 40.5676 113.567 38.902C113.705 38.2282 113.646 37.7325 113.369 37.3955C113.053 36.999 112.421 36.8008 111.492 36.8008H105.526L104.538 41.4002ZM114.002 49.3103H111.769L111.69 49.1915C111.512 48.9138 111.473 48.2796 111.887 46.1781C112.105 45.0282 112.046 44.2947 111.69 43.8583C111.334 43.4224 110.643 43.2241 109.477 43.2241H104.143L102.858 49.3103H100.902L103.945 34.957H111.67C113.33 34.957 114.515 35.3733 115.147 36.1664C115.701 36.8602 115.859 37.8117 115.602 39.0012C115.286 40.5081 114.219 41.7372 112.777 42.3122C113.132 42.4706 113.409 42.6688 113.587 42.9466C114.1 43.6801 114.061 44.7903 113.824 46.2177C113.508 48.0615 113.567 48.7554 113.646 48.8743L114.002 49.3103ZM121.885 49.6474C119.613 49.6474 117.854 48.9337 116.768 47.6054C115.681 46.2573 115.345 44.3343 115.839 42.0742C116.61 38.4858 119.79 34.6003 124.967 34.6003C127.062 34.6003 128.8 35.2345 129.828 36.3645C130.657 37.2767 130.993 38.4662 130.855 39.8934L130.835 40.1313H128.899L128.919 39.854C128.958 38.922 128.721 38.1688 128.168 37.5937C127.457 36.8403 126.212 36.424 124.671 36.424C121.114 36.424 118.645 38.5255 117.874 42.1733C117.499 43.9378 117.716 45.4445 118.506 46.4159C119.257 47.3279 120.482 47.8037 122.142 47.8037C125.086 47.8037 127.121 46.4159 128.207 43.6602L128.267 43.5016H130.223L130.124 43.8386C129.077 47.2684 125.678 49.6474 121.885 49.6474ZM134.905 43.2836H140.2L138.837 37.2964L134.905 43.2836ZM143.757 49.3103H141.564L140.615 45.1075H133.7L130.934 49.3103H128.78L138.304 34.957H140.299L143.757 49.3103Z" fill="#EDECF4"/>
<path fill-rule="evenodd" clip-rule="evenodd" d="M150.118 49.3106H148.163L150.81 36.8008H145.396L145.792 34.9769H158.555L158.16 36.8008H152.746L150.118 49.3106Z" fill="#EDECF4"/>
<path fill-rule="evenodd" clip-rule="evenodd" d="M166.043 36.444C163.396 36.444 159.978 37.9507 159.089 42.1933C158.713 43.938 158.931 45.3257 159.741 46.317C160.531 47.2884 161.874 47.8435 163.534 47.8435C166.182 47.8435 169.6 46.3366 170.489 42.0942C170.864 40.3496 170.647 38.9618 169.837 37.9706C169.047 36.9793 167.703 36.444 166.043 36.444ZM163.238 49.6476C160.966 49.6476 159.108 48.8744 157.982 47.4867C156.896 46.1384 156.56 44.275 157.034 42.0742C158.12 36.9196 162.487 34.6003 166.32 34.6003C168.592 34.6003 170.449 35.3735 171.576 36.7612C172.662 38.1091 172.998 39.9729 172.524 42.1733C171.437 47.3479 167.071 49.6476 163.238 49.6476Z" fill="#EDECF4"/>
</svg>
