<svg width="193" height="60" viewBox="0 0 193 60" fill="none" xmlns="http://www.w3.org/2000/svg">
<path d="M192.904 0.000823975H0.904297V60.0008H192.904V0.000823975Z" fill="white"/>
<path d="M192.904 0.000823975H0.904297V54.0008H192.904V0.000823975Z" fill="#1EA0E6"/>
<path d="M192.904 56.0008H0.904297V60.0008H192.904V56.0008Z" fill="#F03333"/>
<path d="M35.9043 52.0008H21.9043V19.0008H27.9043V48.0008H35.9043V52.0008Z" fill="white"/>
<path d="M49.2047 33.2008C49.2047 39.7008 43.1047 42.6008 40.5047 42.8008C40.8047 46.6008 42.5047 48.1008 44.3047 48.1008C45.0047 48.1008 45.5047 48.1008 46.0047 48.0008V51.9008C45.5047 52.0008 44.7047 52.1008 43.9047 52.1008C40.0047 52.1008 34.8047 49.9008 34.8047 38.8008C34.8047 27.3008 39.6047 25.6008 42.7047 25.6008C45.5047 25.7008 49.2047 27.7008 49.2047 33.2008ZM44.1047 32.9008C44.1047 30.5008 43.5047 29.6008 42.6047 29.6008C41.3047 29.6008 40.2047 31.1008 40.2047 37.5008C40.2047 38.0008 40.2047 38.4008 40.3047 38.8008C41.8047 38.6008 44.1047 36.4008 44.1047 32.9008Z" fill="white"/>
<path d="M74.7043 20.7008C74.7043 32.7008 64.9043 36.9008 61.9043 37.5008V52.0008H54.9043V7.00082H60.8043C68.0043 7.00082 74.7043 10.5008 74.7043 20.7008ZM67.6043 20.7008C67.6043 13.9008 64.9043 12.1008 61.9043 12.1008V31.8008C63.9043 31.6008 67.6043 28.8008 67.6043 20.7008Z" fill="white"/>
<path d="M88.9051 52.0008H82.9051V50.0008L81.1051 52.0008C80.7051 52.1008 80.5051 52.1008 80.3051 52.1008C76.3051 52.1008 72.7051 48.0008 72.7051 42.3008C72.7051 33.0008 80.5051 29.7008 83.0051 29.3008V28.7008C83.0051 27.0008 82.0051 26.2008 80.3051 26.2008C78.7051 26.2008 77.7051 26.4008 76.3051 26.7008L76.4051 22.1008C76.4051 22.1008 77.9051 21.6008 80.7051 21.6008C85.5051 21.6008 89.0051 23.7008 89.0051 30.3008V52.0008H88.9051ZM82.9051 45.7008V34.1008C81.9051 34.2008 78.8051 36.8008 78.8051 42.4008C78.8051 46.0008 80.0051 47.4008 81.1051 47.4008C82.0051 47.4008 82.9051 46.4008 82.9051 45.7008Z" fill="white"/>
<path d="M102.904 27.0008C99.8043 27.0008 97.9043 29.5008 97.9043 33.0008V52.0008H91.9043V22.3008L96.9043 22.0008V24.4008C97.9043 23.6008 99.4043 22.1008 102.404 22.1008H102.904V27.0008Z" fill="white"/>
<path d="M104.904 19.0008V13.0008H110.904V19.0008H104.904ZM110.904 52.0008V22.0008H104.904V52.0008H110.904Z" fill="white"/>
<path d="M127.805 43.4008C127.805 48.6008 123.305 52.1008 118.005 52.1008C115.705 52.1008 113.805 51.8008 112.205 51.1008L114.705 46.6008C115.605 47.0008 116.405 47.1008 117.405 47.1008C119.405 47.1008 121.005 45.8008 121.005 44.0008C121.005 41.9008 120.205 40.4008 117.905 37.7008C113.905 33.9008 112.905 32.1008 112.905 29.0008C112.905 24.8008 116.705 21.5008 121.505 21.5008C123.705 21.5008 125.205 21.9008 126.505 22.4008L124.205 26.6008C123.605 26.3008 122.905 26.2008 121.805 26.2008C120.405 26.2008 119.205 27.2008 119.205 28.5008C119.205 29.7008 119.705 30.8008 122.305 33.2008C126.005 36.7008 127.805 39.2008 127.805 43.4008Z" fill="white"/>
<path d="M128.904 19.0008V13.0008H134.904V19.0008H128.904ZM134.904 52.0008V22.0008H128.904V52.0008H134.904Z" fill="white"/>
<path d="M153.404 30.3008C153.404 37.8008 146.304 41.1008 143.304 41.4008C143.604 45.8008 145.204 47.5008 147.304 47.5008C148.104 47.5008 148.804 47.5008 148.804 47.4008V51.9008C148.804 52.0008 147.704 52.1008 146.704 52.1008C142.204 52.1008 136.404 49.6008 136.404 36.8008C136.404 23.5008 142.004 21.6008 145.604 21.6008C149.104 21.7008 153.404 24.0008 153.404 30.3008ZM147.504 29.9008C147.504 27.2008 146.904 26.1008 145.704 26.1008C144.204 26.1008 143.004 27.8008 143.004 35.2008C143.004 35.8008 143.004 36.2008 143.104 36.6008C144.904 36.6008 147.504 34.0008 147.504 29.9008Z" fill="white"/>
<path d="M171.904 52.0008H165.904V30.5008C165.904 28.4008 164.904 26.6008 163.404 26.6008C161.904 26.6008 160.904 28.4008 160.904 30.5008V52.0008H154.904V22.0008H159.904V23.5008L162.104 21.7008C162.404 21.6008 162.604 21.6008 163.204 21.6008C168.604 21.6008 172.004 24.9008 172.004 32.0008V52.0008H171.904Z" fill="white"/>
</svg>
